<?xml version="1.0" encoding="utf-8"?>
<!-- Generator: Adobe Illustrator 27.4.0, SVG Export Plug-In . SVG Version: 6.00 Build 0)  -->
<svg version="1.1" xmlns="http://www.w3.org/2000/svg" xmlns:xlink="http://www.w3.org/1999/xlink" x="0px" y="0px"
	 viewBox="0 0 1429.4 134.9" style="enable-background:new 0 0 1429.4 134.9;" xml:space="preserve">
<style type="text/css">
	.st0{fill:#164467;}
	.st1{fill:#FFFFFF;}
</style>
<g id="Layer_1">
	<g>
		<path class="st0" d="M1398.6,85.7H879.1C863.6,80.6,850,76,850,76V50c-0.1-4.2,0.7-7.7-7.8-7.6h-32.7c-8.3,0-7.7,3.8-7.7,7.7v15.5
			l-93.1-29.9c-1.1-0.2-9.3-1.6-11.6-1.6c-2.4,0-10.1,1.3-11.2,1.6c-0.1,0-0.1,0.1-0.2,0.1c-0.2,0.1-0.4,0.2-0.6,0.2
			c-0.3,0.1-0.7,0.3-1,0.4c-0.5,0.2-0.9,0.4-1.4,0.5c-0.6,0.2-1.2,0.5-1.8,0.7c-0.7,0.3-1.4,0.5-2.1,0.8c-0.8,0.3-1.6,0.6-2.4,0.9
			c-0.9,0.3-1.8,0.7-2.7,1c-1,0.4-2,0.8-3,1.2c-1.1,0.4-2.2,0.8-3.2,1.3c-1.2,0.4-2.3,0.9-3.5,1.3c-1.2,0.5-2.4,0.9-3.7,1.4
			c-1.3,0.5-2.6,1-3.8,1.5c-1.3,0.5-2.7,1-4,1.6c-1.4,0.5-2.8,1.1-4.1,1.6c-1.4,0.6-2.8,1.1-4.3,1.7c-1.5,0.6-2.9,1.1-4.4,1.7
			c-1.5,0.6-3,1.1-4.4,1.7c-1.5,0.6-3,1.2-4.5,1.7c-1.5,0.6-3,1.2-4.5,1.8c-1.5,0.6-3,1.2-4.5,1.8c-1.5,0.6-3,1.2-4.5,1.8
			c-1.5,0.6-3,1.2-4.5,1.7c-1.5,0.6-3,1.1-4.4,1.7c-1.5,0.6-2.9,1.1-4.4,1.7c-1.4,0.6-2.9,1.1-4.3,1.7c-1.4,0.5-2.8,1.1-4.2,1.6
			c-1.3,0.5-2.7,1-4,1.6c-1.3,0.5-2.6,1-3.9,1.5c-1.2,0.5-2.5,0.9-3.7,1.4c-1.2,0.4-2.3,0.9-3.5,1.3c-1.1,0.4-2.2,0.8-3.2,1.3
			c-1,0.4-2,0.8-3,1.2c-0.9,0.4-1.8,0.7-2.7,1.1c-0.8,0.3-1.6,0.6-2.4,0.9c-0.7,0.3-1.4,0.6-2.1,0.8c-0.6,0.2-1.2,0.5-1.8,0.7
			c-0.5,0.2-1,0.4-1.4,0.6c-1.1,0.4-2.1,0.9-3.2,1.3c-0.7,0.3-1.3,0.6-2,0.8c-0.4,0.1-0.8,0.3-1.3,0.4c0,0-0.1,0-0.1,0
			c-0.1,0-0.1,0-0.2,0c-0.1,0-0.2,0-0.3,0c-0.1,0-0.3,0-0.4,0c-0.2,0-0.3,0-0.5,0c-0.2,0-0.4,0-0.6,0c-0.2,0-0.5,0-0.7,0
			c-0.3,0-0.5,0-0.8,0c-0.3,0-0.6,0-0.9,0c-0.3,0-0.7,0-1,0c-0.4,0-0.7,0-1.1,0c-0.4,0-0.8,0-1.2,0c-0.4,0-0.9,0-1.3,0
			c-0.5,0-0.9,0-1.4,0c-0.5,0-1,0-1.5,0c-0.5,0-1,0-1.5,0c-0.5,0-1.1,0-1.6,0c-0.6,0-1.1,0-1.7,0c-0.6,0-1.2,0-1.8,0
			c-0.6,0-1.3,0-1.9,0c-0.7,0-1.3,0-2,0c-0.7,0-1.4,0-2,0c-0.7,0-1.4,0-2.1,0c-0.7,0-1.5,0-2.2,0c-0.8,0-1.5,0-2.3,0
			c-0.8,0-1.6,0-2.3,0c-0.8,0-1.6,0-2.4,0c-0.8,0-1.7,0-2.5,0c-0.9,0-1.7,0-2.6,0c-0.9,0-1.8,0-2.6,0c-0.9,0-1.8,0-2.7,0
			c-0.9,0-1.8,0-2.8,0c-0.9,0-1.9,0-2.8,0c-1,0-1.9,0-2.9,0c-1,0-2,0-3,0c-1,0-2,0-3,0c-1,0-2.1,0-3.1,0c-1,0-2.1,0-3.1,0
			c-1.1,0-2.1,0-3.2,0c-1.1,0-2.2,0-3.3,0c-1.1,0-2.2,0-3.3,0c-1.1,0-2.2,0-3.4,0c-1.1,0-2.3,0-3.4,0c-1.2,0-2.3,0-3.5,0
			c-1.2,0-2.4,0-3.5,0c-1.2,0-2.4,0-3.6,0c-1.2,0-2.4,0-3.6,0c-1.2,0-2.4,0-3.7,0c-1.2,0-2.5,0-3.7,0c-1.3,0-2.5,0-3.8,0
			c-1.3,0-2.5,0-3.8,0c-1.3,0-2.6,0-3.9,0c-1.3,0-2.6,0-3.9,0c-1.3,0-2.6,0-3.9,0c-1.3,0-2.6,0-4,0c-1.3,0-2.7,0-4,0
			c-1.3,0-2.7,0-4,0c-1.4,0-2.7,0-4.1,0c-1.4,0-2.7,0-4.1,0c-1.4,0-2.8,0-4.2,0c-1.4,0-2.8,0-4.2,0c-1.4,0-2.8,0-4.2,0
			c-1.4,0-2.8,0-4.2,0c-1.4,0-2.8,0-4.3,0c-1.4,0-2.9,0-4.3,0c-1.4,0-2.9,0-4.3,0c-1.4,0-2.9,0-4.3,0c-1.5,0-2.9,0-4.4,0
			c-1.5,0-2.9,0-4.4,0c-1.5,0-2.9,0-4.4,0c-1.5,0-3,0-4.4,0c-1.5,0-3,0-4.5,0c-1.5,0-3,0-4.5,0c-1.5,0-3,0-4.5,0c-1.5,0-3,0-4.5,0
			c-1.5,0-3,0-4.5,0c-1.5,0-3,0-4.5,0c-1.5,0-3,0-4.5,0c-1.5,0-3,0-4.5,0c-1.5,0-3,0-4.6,0c-1.5,0-3,0-4.6,0c-1.5,0-3,0-4.6,0
			c-1.5,0-3.1,0-4.6,0c-1.5,0-3.1,0-4.6,0c-1.5,0-3.1,0-4.6,0c-1.5,0-3.1,0-4.6,0c-1.5,0-3.1,0-4.6,0c-1.5,0-3.1,0-4.6,0
			c-1.5,0-3.1,0-4.6,0c-1.5,0-3.1,0-4.6,0c-1.5,0-3,0-4.6,0c-1.5,0-3,0-4.6,0c-1.5,0-3,0-4.6,0c-1.5,0-3,0-4.6,0c-1.5,0-3,0-4.5,0
			c-1.5,0-3,0-4.5,0c-1.5,0-3,0-4.5,0c-1.5,0-3,0-4.5,0c-1.5,0-3,0-4.5,0c-1.5,0-3,0-4.5,0c-1.5,0-3,0-4.5,0c-1.5,0-3,0-4.4,0
			c-1.5,0-2.9,0-4.4,0c-1.5,0-2.9,0-4.4,0c-1.5,0-2.9,0-4.4,0c-1.5,0-2.9,0-4.4,0c-1.4,0-2.9,0-4.3,0c-1.4,0-2.9,0-4.3,0
			c-1.4,0-2.9,0-4.3,0c-1.4,0-2.8,0-4.3,0c-1.4,0-2.8,0-4.2,0c-1.4,0-2.8,0-4.2,0c-1.4,0-2.8,0-4.2,0c-1.4,0-2.8,0-4.1,0
			c-1.4,0-2.7,0-4.1,0c-1.4,0-2.7,0-4.1,0c-1.3,0-2.7,0-4,0c-1.3,0-2.7,0-4,0c-1.3,0-2.6,0-3.9,0c-1.3,0-2.6,0-3.9,0
			c-1.3,0-2.6,0-3.9,0c-1.3,0-2.5,0-3.8,0c-1.3,0-2.5,0-3.8,0c-1.2,0-2.5,0-3.7,0c-1.2,0-2.5,0-3.7,0c-1.2,0-2.4,0-3.6,0
			c-1.2,0-2.4,0-3.6,0c-1.2,0-2.4,0-3.5,0c-1.2,0-2.3,0-3.5,0c-1.1,0-2.3,0-3.4,0c-1.1,0-2.3,0-3.4,0c-1.1,0-2.2,0-3.3,0
			c-1.1,0-2.2,0-3.3,0c-1.1,0-2.1,0-3.2,0c-1.1,0-2.1,0-3.2,0c-1,0-2.1,0-3.1,0c-1,0-2,0-3,0c-1,0-2,0-3,0c-1,0-1.9,0-2.9,0
			c-0.9,0-1.9,0-2.8,0c-0.9,0-1.9,0-2.8,0c-0.9,0-1.8,0-2.7,0c-0.9,0-1.8,0-2.6,0c-0.9,0-1.7,0-2.6,0c-0.8,0-1.7,0-2.5,0
			c-0.8,0-1.6,0-2.4,0c-0.8,0-1.6,0-2.4,0c-0.8,0-1.5,0-2.3,0c-0.7,0-1.5,0-2.2,0c-0.7,0-1.4,0-2.1,0c-0.7,0-1.4,0-2.1,0
			c-0.7,0-1.3,0-2,0c-0.6,0-1.3,0-1.9,0c-0.6,0-1.2,0-1.8,0c-0.6,0-1.2,0-1.7,0c-0.6,0-1.1,0-1.7,0c-0.5,0-1,0-1.6,0
			c-0.5,0-1,0-1.5,0c-0.5,0-0.9,0-1.4,0c-0.4,0-0.9,0-1.3,0c-0.4,0-0.8,0-1.2,0c-0.4,0-0.7,0-1.1,0c-0.3,0-0.7,0-1,0
			c-0.3,0-0.6,0-0.9,0c-0.3,0-0.6,0-0.8,0c-0.2,0-0.5,0-0.7,0c-0.2,0-0.4,0-0.6,0c-0.2,0-0.4,0-0.5,0c-0.1,0-0.3,0-0.4,0
			c-0.1,0-0.2,0-0.3,0c-0.1,0-0.2,0-0.2,0c0,0-0.1,0-0.1,0c0,0,0,0,0,0c-1.8,0-3.2,1.4-3.2,3.2c0,1.8,1.4,3.2,3.2,3.2h532
			c0.9,0,6.9-2.1,9.1-2.8c8.7-2.4,117.8-36.3,117.8-36.3c2-0.6,7.6-1.8,11.2-1.8c3.2,0,10.2,1.5,11.6,1.8l94.9,25
			c2.2,0.5,5.3,0.1,7-1.3c1.7-1.4,1.7-4.9,1.7-7.1V52.9H840v24.9c0.1,3.8,0.8,6.6,5,8c0,0,4.7,1.4,18.4,5.2
			c4.9,1.4,35.5,1.1,35.5,1.1h499.6c1.8,0,3.2-1.4,3.2-3.2C1401.8,87.2,1400.4,85.7,1398.6,85.7z"/>
	</g>
</g>
<g id="Layer_2">
 <g>
 <path class='st1'/>
 </g>
</g>
</svg>
