<?xml version="1.0" encoding="utf-8"?>
<!-- Generator: Adobe Illustrator 27.4.0, SVG Export Plug-In . SVG Version: 6.00 Build 0)  -->
<svg version="1.1" id="Layer_1" xmlns="http://www.w3.org/2000/svg" xmlns:xlink="http://www.w3.org/1999/xlink" x="0px" y="0px"
	 viewBox="0 0 2463.8 890.1" style="enable-background:new 0 0 2463.8 890.1;" xml:space="preserve">
<style type="text/css">
	.st0{fill:#F2F9FC;}
	.st1{fill:#E4F0F7;}
	.st2{fill:#BDD7E0;}
	.st3{fill:#F5F5F5;}
	.st4{fill:#71C059;}
	.st5{fill:#E8E8E8;}
</style>
<path class="st0" d="M1579.1,107.9c-66.9,0-121.2,54.2-121.2,121.2v437.1h242.3V229C1700.2,162.1,1646,107.9,1579.1,107.9z"/>
<path class="st1" d="M1670.1,228.2c0-50.3-40.8-91.1-91.1-91.1c-50.3,0-91.1,40.8-91.1,91.1L1670.1,228.2L1670.1,228.2z"/>
<rect x="1488" y="261.1" class="st1" width="81.3" height="371.1"/>
<rect x="1588.9" y="261.1" class="st1" width="81.3" height="371.1"/>
<path class="st2" d="M1654.5,401.4c0-8,6.4-14.4,14.4-14.4s14.4,6.4,14.4,14.4s-6.4,14.4-14.4,14.4
	C1660.9,415.8,1654.5,409.4,1654.5,401.4z"/>
<g>
	<g>
		<path class="st3" d="M152.3,782c25.6-5,51.3-9.2,77.2-12.7c-8.2,1.1-16.5,2.2-24.7,3.3c192.4-25.8,389.7-23.5,582.8-8.3
			c50,3.9,99.9,9,149.7,15.7c-8.2-1.1-16.5-2.2-24.7-3.3c212.5,28.8,424.2,68.6,639.2,72.8c93.8,1.8,188.2-3.3,281.5-12.6
			c91.1-9.1,182.8-22.6,270.2-51c103.9-33.7,199.6-86,279.7-160.8c35.6-33.3,36.2-98.3,0-131.5c-38.2-35-93.5-35.5-131.5,0
			c-13.6,12.8-27.9,24.8-42.6,36.3c6.3-4.8,12.5-9.7,18.8-14.5c-41.6,31.8-87.2,57.6-135.4,78.1c7.4-3.1,14.8-6.3,22.2-9.4
			c-79.7,33.5-164.5,52.1-249.9,63.6c8.2-1.1,16.5-2.2,24.7-3.3c-169.9,22.5-342.5,24.8-513,8.7c-52.8-5-105.4-11.4-157.9-18.4
			c8.2,1.1,16.5,2.2,24.7,3.3c-158-21.3-315-49.5-474.1-61.1c-142.3-10.4-285.8-12.6-428.3-3.5c-79.7,5.2-159.6,13.9-238,29.3
			c-21.9,4.3-44.6,24-55.6,42.7c-11.7,19.9-16.6,49.3-9.4,71.7c7.3,22.5,21.2,44.2,42.7,55.6C103.7,784.8,126.7,787,152.3,782
			L152.3,782z"/>
	</g>
</g>
<g>
	<g>
		<path class="st4" d="M274.7,626.1c2.2-38.9-30.8-65.1-49.9-95c-1.6,1.6-3.2,3.2-4.8,4.8c11.2,8.3,25.6,10.4,36.6,19.3
			c10.5,8.5,18.2,19.9,25.8,31c2.5,3.7,8.6,0.2,6-3.5c-7.9-11.6-15.9-23.5-26.9-32.4c-5.3-4.3-11-7.6-17.2-10.3
			c-7.2-3-14.5-5.5-20.8-10.1c-2.9-2.1-6.6,2-4.8,4.8c18.3,28.6,51,54.3,48.9,91.4C267.5,630.6,274.5,630.6,274.7,626.1L274.7,626.1
			z"/>
	</g>
</g>
<g>
	<g>
		<path class="st4" d="M296.1,602.7c4.4-35.1,16.1-71.1,43.4-95c-1.9-1.1-3.9-2.3-5.8-3.4c-9.1,24.1-13.7,49.6-13.5,75.4
			c0,4.5,7,4.5,7,0c-0.1-25.2,4.4-50,13.3-73.5c1.3-3.5-3.5-5.5-5.8-3.4c-28.8,25.1-40.9,63.1-45.5,99.9
			C288.5,607.1,295.5,607.1,296.1,602.7L296.1,602.7z"/>
	</g>
</g>
<g>
	<g>
		<path class="st4" d="M288.7,554.2c0.6-17.4-6.6-33.2-14-48.6c-1.3,1.7-2.6,3.4-4,5.1c10.6,2.8,18.9,9.9,23.5,19.7
			c1.9,4.1,7.9,0.5,6-3.5c-5.3-11.4-15.5-19.8-27.7-23c-3.1-0.8-5.2,2.5-4,5.1c6.8,14.2,13.5,28.9,13,45
			C281.5,558.7,288.5,558.7,288.7,554.2L288.7,554.2z"/>
	</g>
</g>
<g>
	<g>
		<path class="st4" d="M339.7,611.7c1.5-26.7,6.8-53,15.7-78.3c-2.2,0-4.5,0-6.7,0c2.2,8.4,1.1,17.9,1.1,26.4
			c0,8.8-0.1,17.6-0.1,26.4c0,4.5,7,4.5,7,0c0-9.4,0.1-18.9,0.1-28.3c0-8.7,0.9-17.9-1.3-26.4c-0.9-3.5-5.6-3.1-6.7,0
			c-9.1,25.8-14.5,52.8-16,80.1C332.5,616.2,339.5,616.2,339.7,611.7L339.7,611.7z"/>
	</g>
</g>
<g>
	<g>
		<path class="st4" d="M374.5,587c1.4-13.8,0.5-27.6-2.6-41.2c-1.9,1.1-3.9,2.3-5.8,3.4c11.4,13.6,17.2,30.8,16.8,48.5
			c-0.1,4.5,6.9,4.5,7,0c0.5-19.6-6.3-38.4-18.8-53.5c-2.4-2.9-6.6,0.3-5.8,3.4c3,13,3.7,26.1,2.3,39.3
			C367,591.5,374,591.5,374.5,587L374.5,587z"/>
	</g>
</g>
<g>
	<g>
		<path class="st4" d="M2182.6,745.7c-2.8-29.1-5.5-61.2,11-87c2.5-3.8-3.5-7.1-6-3.5c-16.8,23.6-30.5,49-41.3,75.8
			c-1.7,4.2,5.1,6,6.8,1.9c10.5-26.2,24.2-51.1,40.6-74.2c-2-1.2-4-2.4-6-3.5c-17.3,26.9-14.9,60.1-12,90.5
			C2176,750.2,2183,750.2,2182.6,745.7L2182.6,745.7z"/>
	</g>
</g>
<g>
	<g>
		<path class="st4" d="M2134.7,740.8c-2.2-39.3,3.4-78.5,16.6-115.6c1.4-4-4.3-5.7-6.4-2.7c-13,18.6-22.4,39.8-29.5,61.4
			c-7.4,22.5-12.4,46.2-12.5,70c0,4.5,7,4.5,7,0c0.1-23.2,5.1-46.2,12.3-68.1c6.9-21,16-41.6,28.7-59.7c-2.1-0.9-4.3-1.8-6.4-2.7
			c-13.4,37.6-19.2,77.6-16.9,117.5C2127.9,745.3,2134.9,745.3,2134.7,740.8L2134.7,740.8z"/>
	</g>
</g>
<g>
	<g>
		<path class="st4" d="M2105,681.5c-10.2-18.8-26.2-33.9-45.7-42.7c-2.8-1.3-7.1,1.7-4.8,4.8c18.3,24.4,30.1,52.9,34.4,83
			c0.6,4.4,7.4,2.6,6.8-1.9c-4.4-30.7-16.6-59.9-35.1-84.7c-1.6,1.6-3.2,3.2-4.8,4.8c18.5,8.4,33.5,22.3,43.2,40.2
			C2101.1,689,2107.1,685.5,2105,681.5L2105,681.5z"/>
	</g>
</g>
<g>
	<g>
		<path class="st4" d="M2077.5,762.9c-5.3-32.4-24-60-42.3-86.4c-1.6,1.6-3.2,3.2-4.8,4.8c17.1,8.7,31.2,21.8,41,38.3
			c2.3,3.9,8.4,0.3,6-3.5c-10.4-17.4-25.5-31.5-43.5-40.8c-2.9-1.5-6.9,1.7-4.8,4.8c18,26,36.4,52.9,41.6,84.8
			C2071.5,769.2,2078.2,767.3,2077.5,762.9L2077.5,762.9z"/>
	</g>
</g>
<g>
	<g>
		<path class="st4" d="M2040.3,772.2c-1.5-14.6,2.4-28.7,11.3-40.4c-2.2-0.6-4.3-1.2-6.5-1.8c-1.8,16.3-0.5,32.6,3.7,48.4
			c1.1,4.4,7.9,2.5,6.8-1.9c-4-15.3-5.1-30.9-3.4-46.6c0.4-3.9-4.7-4.2-6.5-1.8c-9.5,12.5-13.9,28.3-12.3,44
			C2033.7,776.7,2040.7,776.7,2040.3,772.2L2040.3,772.2z"/>
	</g>
</g>
<g>
	<path class="st5" d="M1661.9,805.3c-30.6-0.2-61.3,4.6-90.3,14.3c-3,1-6.3,2.4-7.5,5.3c-1.8,4.7,3.2,9.2,7.8,11.3
		c20.4,9.4,43.9,7.1,66.4,7.5c19.5,0.3,39,2.8,58.5,2.2c19.5-0.5,39.5-4.2,55.8-15.1c2.2-1.4,4.4-3.3,4.7-5.9
		c0.6-4.3-4.4-7.1-8.5-8.5c-27.6-9.2-56.8-13.2-85.8-11.7"/>
	<g>
		<path class="st5" d="M1661.9,797.3c-31.1-0.1-63,4.3-92.5,14.6c-6.4,2.2-12.5,5.9-13.5,13.2c-1,7.1,3.8,13,9.5,16.6
			c12.1,7.7,28.6,9.2,42.5,9.7c15.3,0.6,30.7,0,46,0.8c16.2,0.9,32.5,2.4,48.8,1.4c14.3-0.9,28.4-3.5,41.5-9.2
			c10.5-4.5,29.2-15.3,17.8-28.8c-5.1-6-13.6-7.8-20.9-9.9c-8.3-2.4-16.8-4.3-25.3-5.7c-17.5-2.9-35.2-4.1-52.9-3.2
			c-10.3,0.5-10.3,16.5,0,16c25.3-1.2,50.5,1.6,74.9,8.6c2.9,0.8,6,1.6,8.8,2.8c0.6,0.2,1.3,0.7,1.9,0.8c0.4,0.2,0.8,0.5,1.2,0.7
			c-0.5-0.9-0.4-1.9,0.3-3.1c0.3,0.2-12,7.2-13.1,7.6c-10.5,4.5-22,6.6-33.4,7.3c-25.3,1.7-50.6-2.1-75.9-2
			c-12.3,0-24.8,0.4-36.9-1.9c-5-1-10.2-2.2-14.8-4.4c-0.8-0.4-3.9-2.8-4.3-2.7c-0.2,0.6-0.3,1.2-0.5,1.8c0.4-0.2,0.8-0.4,1.2-0.6
			c1.4,0.1,3.6-1.2,4.9-1.6c27.4-8.7,55.9-12.9,84.6-12.8C1672.2,813.3,1672.2,797.3,1661.9,797.3L1661.9,797.3z"/>
	</g>
</g>
<g>
	<path class="st5" d="M1518.6,793.9c25.4,0.2,50.9-3.8,75-11.6c2.5-0.8,5.3-1.9,6.2-4.3c1.5-3.8-2.7-7.5-6.5-9.2
		c-16.9-7.6-36.5-5.8-55.1-6.1c-16.2-0.3-32.4-2.2-48.6-1.8s-32.8,3.5-46.3,12.3c-1.8,1.2-3.7,2.7-3.9,4.8c-0.5,3.5,3.6,5.8,7.1,6.9
		c22.9,7.5,47.2,10.7,71.3,9.5"/>
	<g>
		<path class="st5" d="M1518.6,801.9c13.8,0,27.5-1.1,41.1-3.2c12.9-2.1,26.4-4.7,38.6-9.6c5.3-2.1,9.6-6.3,9.9-12.4
			c0.2-6.2-4.4-11.3-9.5-14.2c-10.5-6-23.9-7.3-35.8-7.7c-12.8-0.5-25.5,0-38.3-0.7c-13.9-0.8-27.8-2-41.7-1
			c-12,0.9-23.9,3.3-34.9,8.3c-4.7,2.1-9.9,4.6-13.3,8.5c-4.2,4.8-4.4,11.9-0.1,16.7c4.2,4.8,10.9,6.3,16.8,8
			c7.1,2,14.4,3.7,21.7,4.9c14.8,2.5,29.7,3.4,44.6,2.7c10.3-0.5,10.3-16.5,0-16c-20.4,0.9-40.6-1.1-60.3-6.6
			c-2.4-0.7-4.7-1.4-7.1-2.1c0,0-3.6-1.5-3.7-1.5c-4.6,0.7-0.5,4,0.7,3.8c0.6-0.1,2.2-1.4,2.8-1.7c2.3-1.3,4.6-2.5,7.1-3.5
			c8.1-3.3,17-5,25.7-5.6c21-1.5,42.1,1.6,63.2,1.5c9.5,0,19.1-0.3,28.5,1c4.5,0.7,9.1,1.7,13.3,3.4c0.8,0.3,4,2.6,4.5,2.5
			c0.1-0.6,0.3-1.3,0.4-1.9c0.9-1.8,0.8-2.4-0.1-1.6c-0.7-0.3-3.2,1.1-4,1.3c-22.8,7.1-46.3,10.5-70.1,10.5
			C1508.4,785.9,1508.3,801.9,1518.6,801.9L1518.6,801.9z"/>
	</g>
</g>
<g>
	<path class="st5" d="M1659.7,743.7c-22.1,0.1-44.2-2.7-65.2-8.4c-2.2-0.6-4.6-1.4-5.4-3.1c-1.3-2.8,2.3-5.4,5.6-6.7
		c14.7-5.5,31.7-4.2,47.9-4.4c14.1-0.2,28.1-1.6,42.2-1.3s28.5,2.5,40.2,8.9c1.6,0.8,3.2,1.9,3.4,3.4c0.4,2.6-3.2,4.2-6.2,5
		c-19.9,5.4-41,7.8-61.9,6.9"/>
	<g>
		<path class="st5" d="M1659.7,735.7c-11.3,0-22.5-0.6-33.7-2.1c-5.3-0.7-10.5-1.7-15.7-2.7c-2.7-0.6-5.5-1.2-8.2-1.9
			c-1.5-0.4-3-0.8-4.5-1.2c-0.5-0.1-1-0.3-1.6-0.4c-1.2-0.5-1,0,0.6,1.5c0,1.4,0,2.8,0,4.3c-0.3,1.4,0,0.3,1.4-0.3
			c1-0.4,2.1-0.7,3.1-1c2.5-0.7,5.1-1.3,7.7-1.7c5.5-0.9,11.1-1,16.7-1c11.5-0.1,23-0.1,34.5-0.7c11.2-0.6,22.5-1.2,33.8-0.2
			c5.4,0.5,10.7,1.4,16,2.8c3.9,1.1,10.1,2.5,12.8,5.6c-0.7-1.2-1.4-2.4-2.1-3.5c0,0,0,0,0.1,0c0.4-1.3,0.7-2.7,1.1-4
			c0.4-0.7,0.8-0.1,0-0.1c-1.2,0-2.8,0.8-4,1.1c-2.4,0.6-4.9,1.2-7.3,1.7c-5.5,1.2-11,2.2-16.5,2.8c-11,1.3-22.1,1.7-33.2,1.3
			c-10.3-0.4-10.3,15.6,0,16c11.7,0.4,23.5,0,35.1-1.5c10.8-1.4,23.6-2.5,33.4-7.3c4.1-2,7.4-5.7,7.5-10.5c0.1-5.6-4.2-9.3-8.8-11.7
			c-9.8-5-20.5-7.3-31.3-8.5c-11.5-1.2-23-0.7-34.5-0.1c-11.3,0.6-22.5,0.7-33.7,0.8c-10.7,0-21.8,0.4-32.2,3.6
			c-4.9,1.5-10.2,3.6-13.1,8.1c-3.1,4.7-2.3,10.6,1.8,14.4c4.2,4,11.4,4.9,16.8,6.1c6.1,1.4,12.3,2.6,18.4,3.5c13.2,2,26.5,3,39.8,3
			C1670,751.7,1670,735.7,1659.7,735.7L1659.7,735.7z"/>
	</g>
</g>
<g>
	<path class="st5" d="M1544.3,697.8c-15.6,0.1-31.1-1.3-45.9-3.9c-1.5-0.3-3.2-0.7-3.8-1.5c-0.9-1.3,1.6-2.5,4-3.1
		c10.4-2.6,22.3-2,33.7-2.1c9.9-0.1,19.8-0.8,29.7-0.6c9.9,0.1,20.1,1.2,28.3,4.2c1.1,0.4,2.2,0.9,2.4,1.6c0.3,1.2-2.2,2-4.3,2.3
		c-14,2.5-28.9,3.6-43.6,3.2"/>
	<g>
		<path class="st5" d="M1544.3,689.8c-8.1,0-16.2-0.3-24.2-1c-3.7-0.3-7.5-0.7-11.2-1.3c-2.6-0.4-8.1-0.4-10.3-2
			c1.2,1.6,2.5,3.2,3.7,4.8c-0.1-0.3-0.1-0.5-0.2-0.8c-0.3,2.1-0.5,4.1-0.8,6.2c0.2-0.2,0.3-0.5,0.5-0.7c-1,1-1.9,1.9-2.9,2.9
			c5.1-3.4,14.7-2.5,20.6-2.6c7.9-0.1,15.8,0,23.6-0.3c8.1-0.3,16.3-0.6,24.4-0.2c6.3,0.3,15.2,0.6,20.7,3.9c-1-1-1.9-1.9-2.9-2.9
			c0.2,0.2,0.3,0.4,0.5,0.6c-0.3-2.1-0.5-4.1-0.8-6.2c0,0.2-0.1,0.4-0.1,0.7c0.7-1.2,1.4-2.4,2.1-3.5c1.7-1.4-1.8-0.2-2.5-0.1
			c-1.8,0.3-3.7,0.6-5.5,0.9c-3.7,0.5-7.4,0.9-11.1,1.2c-7.7,0.6-15.4,0.8-23,0.6c-10.3-0.2-10.3,15.8,0,16c8.6,0.2,17.3,0,25.9-0.8
			c7.5-0.7,16.3-0.9,23.3-3.7c7.7-3.1,9.1-12.9,1.4-17.1c-6.7-3.7-15.7-4.5-23.2-5.2c-16.8-1.5-34,0-50.9,0.1
			c-8,0-16.3,0.2-24.1,2.2c-6.9,1.7-14.7,8.5-9,15.9c2.8,3.7,7.4,4.3,11.7,5c4.8,0.8,9.6,1.4,14.4,2c9.9,1.1,19.9,1.6,29.9,1.6
			C1554.6,705.8,1554.6,689.8,1544.3,689.8L1544.3,689.8z"/>
	</g>
</g>
<g>
	<path class="st5" d="M1636.7,668.3c-7.8,0-15.6-0.6-23-2c-0.8-0.1-1.6-0.3-1.9-0.7c-0.5-0.7,0.8-1.3,2-1.6c5.2-1.3,11.2-1,16.9-1
		c5,0,9.9-0.4,14.9-0.3c5,0.1,10.1,0.6,14.2,2.1c0.5,0.2,1.1,0.5,1.2,0.8c0.1,0.6-1.1,1-2.2,1.2c-7,1.3-14.4,1.8-21.8,1.6"/>
	<g>
		<path class="st5" d="M1636.7,660.3c-3.9,0-7.8-0.1-11.6-0.5c-2.3-0.2-7.3,0-9.2-1.1c1.3,2.3,2.6,4.6,4,6.9c0-0.2,0-0.4,0.1-0.6
			c-1.3,2.3-2.6,4.6-4,6.9c1.9-1.3,5.7-0.8,7.9-0.9c3.9-0.1,7.7,0,11.6-0.1c3.7-0.1,7.4-0.3,11.2-0.2c1.8,0,3.6,0.1,5.4,0.4
			c1.1,0.2,5,1.9,3.4,0.2c-0.4-3.2-0.8-6.5-1.3-9.7c-0.1,0.2-0.2,0.4-0.3,0.5c1-1,1.9-1.9,2.9-2.9c-1.8,0.8-6.2,0.7-8.6,0.9
			c-3.7,0.3-7.4,0.3-11,0.3c-10.3-0.2-10.3,15.8,0,16c5.9,0.1,11.7-0.2,17.6-0.9c4.8-0.6,10.9-0.9,13.3-5.8c1.7-3.3,1.3-7-1.3-9.7
			c-3.6-3.9-10.5-4.5-15.5-4.9c-6.2-0.6-12.4-0.1-18.6,0c-9.2,0.2-27.7-2.4-28.7,10.6c-0.2,2.8,1.7,5.5,4,6.9
			c3.9,2.3,9.1,2.4,13.4,2.9c5.1,0.6,10.3,0.8,15.5,0.9C1647,676.3,1647,660.3,1636.7,660.3L1636.7,660.3z"/>
	</g>
</g>
</svg>
