<svg version="1.1" id="Layer_1" xmlns="http://www.w3.org/2000/svg" xmlns:xlink="http://www.w3.org/1999/xlink" x="0px" y="0px"
	 width="100%" viewBox="0 0 1024 192" enable-background="new 0 0 1024 192" xml:space="preserve">
<path fill="#000000" opacity="1.000000" stroke="none" 
	d="
M1.000000,180.000000 
	C1.000000,128.643341 1.000000,77.286682 1.287184,25.597763 
	C4.349432,26.634325 7.461596,26.044779 10.351605,26.783918 
	C16.072794,28.247149 21.656921,28.534082 27.454092,26.444735 
	C31.312149,25.054256 35.573917,24.993843 39.791100,25.778790 
	C64.637390,30.403427 89.727409,31.264473 114.883049,29.884996 
	C132.058945,28.943110 148.624741,24.053879 165.483673,21.046822 
	C167.067459,20.764330 169.376526,20.143627 168.779434,18.073538 
	C167.007095,11.928961 171.234512,8.422095 174.376572,4.524859 
	C175.735458,2.839351 175.540375,2.029538 174.000000,1.000000 
	C457.548309,1.000000 741.096619,1.000000 1025.000000,1.000000 
	C1025.000000,60.689522 1025.000000,120.379753 1024.601807,180.427597 
	C1022.049316,180.657318 1019.895020,180.419571 1017.740540,180.418045 
	C986.574158,180.395859 955.407654,180.372772 924.241455,180.452148 
	C920.693542,180.461182 917.238220,180.068359 913.921387,179.021072 
	C865.778748,163.819794 817.663635,148.531738 769.516785,133.343857 
	C765.979675,132.228058 764.474487,130.412613 764.551941,126.555801 
	C764.772705,115.560371 764.671448,104.557320 764.610413,93.557747 
	C764.561829,84.806633 761.194031,81.445107 752.507385,81.425179 
	C736.674255,81.388855 720.840942,81.391716 705.007751,81.413818 
	C694.586548,81.428368 692.391541,83.638443 692.376282,93.997902 
	C692.366089,100.929733 692.374329,107.861595 692.374329,115.772034 
	C684.318481,113.380013 677.342041,111.449341 670.454956,109.240112 
	C632.496155,97.063736 594.599426,84.692032 556.590942,72.673370 
	C544.687134,68.909264 532.373535,68.193176 520.335144,72.148384 
	C497.460663,79.663803 474.149567,85.657280 451.064178,92.431435 
	C417.340576,102.327248 383.487579,111.781357 349.704865,121.476463 
	C326.914032,128.017075 304.162598,134.695175 281.369781,141.228790 
	C243.569855,152.064240 205.701675,162.665298 167.965088,173.716263 
	C153.861786,177.846344 139.890259,180.834488 124.958511,180.606430 
	C85.967979,180.010956 46.962265,180.416061 7.962619,180.393341 
	C5.641671,180.391983 3.320870,180.136978 1.000000,180.000000 
z"/>
</svg>