<?xml version="1.0" encoding="UTF-8"?>
<!DOCTYPE svg PUBLIC "-//W3C//DTD SVG 1.1//EN" "http://www.w3.org/Graphics/SVG/1.1/DTD/svg11.dtd">
<svg xmlns="http://www.w3.org/2000/svg" version="1.1" width="1454px" height="349px" style="shape-rendering:geometricPrecision; text-rendering:geometricPrecision; image-rendering:optimizeQuality; fill-rule:evenodd; clip-rule:evenodd" xmlns:xlink="http://www.w3.org/1999/xlink">
<g><path style="opacity:0.995" fill="#fefffe" d="M 1453.5,335.5 C 1453.5,339.833 1453.5,344.167 1453.5,348.5C 968.833,348.5 484.167,348.5 -0.5,348.5C -0.5,344.167 -0.5,339.833 -0.5,335.5C 2.56816,335.453 5.56816,334.953 8.5,334C 236.122,268.511 463.788,203.178 691.5,138C 717.905,127.409 744.905,125.742 772.5,133C 857.766,160.478 943.099,187.645 1028.5,214.5C 1028.33,196.83 1028.5,179.164 1029,161.5C 1030.14,156.36 1033.31,153.193 1038.5,152C 1040.83,151.667 1043.17,151.333 1045.5,151C 1081.53,150.04 1117.53,150.373 1153.5,152C 1158.67,153.167 1161.83,156.333 1163,161.5C 1163.17,189.173 1163.67,216.839 1164.5,244.5C 1260.71,275.302 1357.05,305.635 1453.5,335.5 Z"/></g>
</svg>
