<?xml version="1.0" encoding="UTF-8"?>
<!DOCTYPE svg PUBLIC "-//W3C//DTD SVG 1.1//EN" "http://www.w3.org/Graphics/SVG/1.1/DTD/svg11.dtd">
<svg xmlns="http://www.w3.org/2000/svg" version="1.1" width="1920px" height="366px" style="shape-rendering:geometricPrecision; text-rendering:geometricPrecision; image-rendering:optimizeQuality; fill-rule:evenodd; clip-rule:evenodd" xmlns:xlink="http://www.w3.org/1999/xlink">
<g><path style="opacity:0.994" fill="#fefffe" d="M 1919.5,335.5 C 1919.5,345.5 1919.5,355.5 1919.5,365.5C 1279.5,365.5 639.5,365.5 -0.5,365.5C -0.5,355.5 -0.5,345.5 -0.5,335.5C 90.1673,335.667 180.834,335.5 271.5,335C 505.09,268.469 738.423,201.136 971.5,133C 994.162,127.031 1016.83,127.031 1039.5,133C 1124.77,160.478 1210.1,187.645 1295.5,214.5C 1295.33,196.83 1295.5,179.164 1296,161.5C 1297.14,156.36 1300.31,153.193 1305.5,152C 1307.83,151.667 1310.17,151.333 1312.5,151C 1348.53,150.04 1384.53,150.373 1420.5,152C 1425.67,153.167 1428.83,156.333 1430,161.5C 1429.85,189.557 1430.68,217.391 1432.5,245C 1527.17,275 1621.83,305 1716.5,335C 1784.17,335.5 1851.83,335.667 1919.5,335.5 Z"/></g>
</svg>
