<?xml version="1.0" encoding="utf-8"?>
<!-- Generator: Adobe Illustrator 27.4.0, SVG Export Plug-In . SVG Version: 6.00 Build 0)  -->
<svg version="1.1" id="Layer_1" xmlns="http://www.w3.org/2000/svg" xmlns:xlink="http://www.w3.org/1999/xlink" x="0px" y="0px"
	 viewBox="0 0 105 102.1" style="enable-background:new 0 0 105 102.1;" xml:space="preserve">
<style type="text/css">
	.st0{fill:#164467;}
	.st1{fill-rule:evenodd;clip-rule:evenodd;fill:#72C059;}
	.st2{fill:#72C059;}
	.st3{fill:#B4B4B4;}
	.st4{fill:#E6F0F6;}
	.st5{fill:#FFFFFF;}
</style>
<g id="Page-1_00000155861642509089041360000008965137839788027839_">
	
		<g id="homestretch-footer-v1_00000160179991344640467340000001854525288913704077_" transform="translate(-1208.000000, -3512.000000)">
		<g id="Group-3_00000147940233342599693720000014743313135818819495_" transform="translate(892.000000, 3512.000000)">
			<path id="equal-housing-opportunity_00000010991375363803472060000011605855908584830906_" class="st3" d="M382.4,90.8v4.8h0
				c0,1.9-1.2,2.8-3,2.8c-0.7,0-1.7-0.2-2.3-0.9c-0.4-0.4-0.6-1-0.6-1.8v-4.9h1.6v4.8c0,1,0.6,1.5,1.3,1.5c1.1,0,1.5-0.5,1.5-1.4
				v-4.8H382.4z M353.8,90.6c1,0,3.5,0.4,3.5,3.9c0,3.5-2.6,3.9-3.5,3.9c-1,0-3.5-0.4-3.5-3.9C350.3,91,352.8,90.6,353.8,90.6z
				 M327.8,90.6c1,0,3.5,0.4,3.5,3.9c0,3.5-2.6,3.9-3.5,3.9c-1,0-3.5-0.4-3.5-3.9C324.2,91,326.8,90.6,327.8,90.6z M407.4,90.8
				L409,94l1.5-3.2h1.7l-2.5,4.6v2.8h-1.5v-2.8l-2.5-4.6H407.4z M403.9,90.8v1.3h-2.2v6.1h-1.5v-6.1h-2.2v-1.3H403.9z M395.6,90.8
				v7.4h-1.5v-7.4H395.6z M386.9,90.8l2.9,5.1h0v-5.1h1.4v7.4h-1.5l-3-5.2h0v5.2h-1.4v-7.4H386.9z M374.1,90.8v1.3h-2.2v6.1h-1.5
				v-6.1h-2.2v-1.3H374.1z M363.8,90.8c2,0,2.3,1.4,2.3,2.1c0,0.8-0.4,1.5-1.1,1.8c0.6,0.3,0.9,0.5,0.9,1.9c0,1.1,0,1.3,0.3,1.5l0,0
				v0.2h-1.7c-0.1-0.4-0.2-0.7-0.2-1.5c0-1-0.1-1.4-1.2-1.4l0,0h-1.6v2.9h-1.5v-7.4H363.8z M345.7,90.8c1.4,0,2.3,0.9,2.3,2.4
				c0,0.7-0.4,2.3-2.4,2.3l0,0h-1.8v2.7h-1.5v-7.4H345.7z M337.4,90.8c1.4,0,2.3,0.9,2.3,2.4c0,0.7-0.4,2.3-2.4,2.3l0,0h-1.8v2.7
				H334v-7.4H337.4z M353.8,91.9c-0.8,0-2,0.5-2,2.6c0,2.1,1.2,2.6,2,2.6c0.8,0,2-0.5,2-2.6C355.8,92.4,354.7,91.9,353.8,91.9z
				 M327.8,91.9c-0.8,0-2,0.5-2,2.6c0,2.1,1.2,2.6,2,2.6c0.8,0,2-0.5,2-2.6C329.8,92.4,328.6,91.9,327.8,91.9z M345.1,92h-1.2v2.2
				h1.4c1.1,0,1.1-0.8,1.1-1.1C346.4,92.3,346,92,345.1,92L345.1,92z M336.8,92h-1.2v2.2h1.4c1.2,0,1.2-0.8,1.2-1.1
				C338.1,92.3,337.7,92,336.8,92L336.8,92z M363.5,92h-1.9v2h1.8c0.8,0,1.2-0.3,1.2-1C364.6,92.6,364.4,92,363.5,92L363.5,92z
				 M334.8,79.4c1,0,3.5,0.4,3.5,3.9c0,1.2-0.3,2-0.8,2.6l0,0l0.8,0.8l-0.8,0.8l-0.9-0.8c-0.7,0.4-1.5,0.5-1.9,0.5
				c-1,0-3.5-0.4-3.5-3.9C331.3,79.8,333.9,79.4,334.8,79.4z M390.1,79.4c2.3,0,2.9,1.5,2.9,2.4h-1.5c0-0.3-0.2-1.1-1.5-1.1
				c-0.6,0-1.3,0.2-1.3,0.9c0,0.6,0.5,0.7,0.8,0.8l1.8,0.4c1,0.2,1.9,0.7,1.9,2c0,2.2-2.3,2.4-2.9,2.4c-2.7,0-3.2-1.5-3.2-2.5h1.5
				c0,0.4,0.2,1.2,1.6,1.2c0.7,0,1.5-0.2,1.5-1c0-0.6-0.6-0.7-1.3-0.9l-0.8-0.2c-1.2-0.3-2.3-0.5-2.3-2.2
				C387.3,80.9,387.7,79.4,390.1,79.4z M381.5,79.6v4.8c0,1,0.6,1.5,1.3,1.5c1.1,0,1.5-0.5,1.5-1.4v-4.8h1.6v4.8
				c0,1.9-1.2,2.8-3,2.8c-0.7,0-1.7-0.2-2.3-0.9c-0.4-0.4-0.6-1-0.6-1.8v-4.9H381.5z M374.9,79.4c1,0,3.6,0.4,3.6,3.9
				c0,3.5-2.6,3.9-3.6,3.9c-1,0-3.5-0.4-3.5-3.9C371.4,79.8,373.9,79.4,374.9,79.4z M341.3,79.6v4.8c0,1,0.6,1.5,1.3,1.5
				c1.1,0,1.5-0.5,1.5-1.4v-4.8h1.6v4.8h0c0,1.9-1.2,2.8-3,2.8c-0.7,0-1.7-0.2-2.3-0.9c-0.4-0.4-0.6-1-0.6-1.8v-4.9H341.3z
				 M408.6,79.4c2.3,0,3.2,1.5,3.2,2.5h-1.5c0-0.3-0.5-1.2-1.6-1.2c-1.1,0-2.1,0.8-2.1,2.6c0,2,1.1,2.5,2.1,2.5
				c0.3,0,1.5-0.1,1.8-1.6h-1.7V83h3.1v4h-1l-0.2-0.9c-0.4,0.4-1,1.1-2.3,1.1c-1.8,0-3.4-1.3-3.4-3.9
				C405,81.3,406.1,79.4,408.6,79.4z M350.7,79.6l2.6,7.4h-1.7l-0.5-1.5h-2.7l-0.5,1.5h-1.6l2.6-7.4H350.7z M330,79.6v1.3h-3.9v1.5
				h3.6v1.3h-3.6v1.9h4.1V87h-5.6v-7.4H330z M356,79.6v6h3.7V87h-5.2v-7.4H356z M399.3,79.6l2.9,5.1h0v-5.1h1.4V87h-1.5l-3-5.2h0V87
				h-1.4v-7.4H399.3z M396,79.6V87h-1.5v-7.4H396z M365.6,79.6v2.8h2.9v-2.8h1.5V87h-1.5v-3.3h-2.9V87H364v-7.4H365.6z M374.9,80.7
				c-0.8,0-2,0.5-2,2.6s1.2,2.6,2,2.6c0.8,0,2-0.5,2-2.6S375.8,80.7,374.9,80.7z M334.8,80.7c-0.8,0-2,0.5-2,2.6s1.2,2.6,2,2.6
				c0.3,0,0.6-0.1,0.8-0.2l0,0l-0.7-0.7l0.8-0.8l0.8,0.7c0.2-0.4,0.3-0.9,0.3-1.6C336.8,81.2,335.7,80.7,334.8,80.7z M349.8,81.3
				L349.8,81.3l-1,2.9h1.9L349.8,81.3z M368.2,2.9l50.5,24.4v11.5H412v34.4H324V38.8h-5.6V27.3L368.2,2.9z M368.2,14.4l-33.4,17
				v31.4h66.4V31.4L368.2,14.4z M383.4,47.3v11.1h-30.8V47.3H383.4z M383.4,31.4v11.1h-30.8V31.4H383.4z"/>
		</g>
	</g>
</g>
</svg>
