<?xml version="1.0" encoding="utf-8"?>
<!-- Generator: Adobe Illustrator 27.4.0, SVG Export Plug-In . SVG Version: 6.00 Build 0)  -->
<svg version="1.1" id="Layer_1" xmlns="http://www.w3.org/2000/svg" xmlns:xlink="http://www.w3.org/1999/xlink" x="0px" y="0px"
	 viewBox="0 0 105.3 102.1" style="enable-background:new 0 0 105.3 102.1;" xml:space="preserve">
<style type="text/css">
	.st0{fill:#164467;}
	.st1{fill-rule:evenodd;clip-rule:evenodd;fill:#72C059;}
	.st2{fill:#72C059;}
	.st3{fill:#B4B4B4;}
	.st4{fill:#E6F0F6;}
	.st5{fill:#FFFFFF;}
</style>
<g id="Page-1_00000143583076468539377960000002047598274334929540_">
	
		<g id="homestretch-footer-v1_00000103255339723356787960000013491755827720208307_" transform="translate(-1124.000000, -3512.000000)">
		
			<g id="Seal_of_transparency_00000139987942362761141940000001565025455105373354_" transform="translate(892.000000, 3512.000000)">
			<g transform="translate(232.000000, 0.000000)">
				<g id="Group_00000010999376099243175880000002202823379153996964_" transform="translate(1.648361, 1.647768)">
					<path id="Path_00000051377002764924544890000005944552951126196895_" class="st3" d="M40,12.7c0.8-0.2,1.2-0.8,1-1.5
						c-0.2-0.7-0.8-1-1.6-0.8l-0.6,0.2l0.6,2.3L40,12.7z"/>
					<polygon id="Path_00000096021573175535541790000006693341854440883608_" class="st3" points="48,9.5 47.3,12.3 49.1,12.2 					
						"/>
					<path id="Path_00000147907418226766150630000014928097392282708393_" class="st3" d="M18.9,27.6c1.3,1,2.5,1.1,3.2,0.2
						c0.7-0.9,0.3-2.1-0.9-3.1c-1.3-1-2.5-1.1-3.2-0.2C17.3,25.5,17.6,26.6,18.9,27.6z"/>
					<path id="Path_00000151529455089331561970000007635569331289005222_" class="st3" d="M72.3,16.6c0.4-0.7,0.2-1.2-0.5-1.7
						l-0.4-0.3l-1.2,2l0.4,0.2C71.3,17.4,71.9,17.3,72.3,16.6z"/>
					<path id="Path_00000174565992987191184180000017737278877512850061_" class="st3" d="M83.4,27.6c0.6-0.4,0.7-1.1,0.2-1.8
						l-0.4-0.5l-1.9,1.4l0.4,0.5C82.2,27.9,82.8,28,83.4,27.6z"/>
					<polygon id="Path_00000005233132257076477340000003648545547386492857_" class="st3" points="13.6,41.2 10.7,41.5 13.2,43 
											"/>
					<path id="Shape_00000026876873477128420170000017348270300883986572_" class="st3" d="M62.5,4.5C37.7-2.1,12.3,12.6,5.7,37.3
						C2.4,49.6,4.3,62,10.1,72.2c1.1-0.2,2.2-0.5,3.2-0.7c0.5-0.1,0.9-0.2,1.4-0.3c0.9-0.2,1.8-0.4,2.7-0.5c0.5-0.1,1.1-0.2,1.6-0.3
						c0.7-0.1,1.4-0.3,2.1-0.4c0.4-0.1,0.9-0.2,1.3-0.2c1-0.2,2.1-0.3,3.1-0.5c1-0.1,1.9-0.3,2.9-0.4c0.1,0,0.1,0,0.2,0
						c6.8-0.9,13.6-1.3,20.4-1.4c1.1,0,2.1,0,3.2,0c5.6,0.1,11.2,0.4,16.8,1c0.9,0.1,1.8,0.2,2.7,0.3c0,0,0,0,0,0
						c0.9,0.1,1.7,0.2,2.6,0.3c0,0,0,0,0,0c0.4,0.1,0.8,0.1,1.2,0.2c0,0,0,0,0,0c3.7,0.5,7.5,1.2,11.2,2c0.1,0,0.2,0.1,0.4,0.1
						c1.2,0.3,2.4,0.5,3.6,0.8c1.9-3.4,3.4-7,4.5-11C101.9,36.6,87.2,11.1,62.5,4.5z M84.9,25.1c1.1,1.6,1.1,3-0.3,4
						c-0.9,0.7-1.9,0.6-2.8,0.1l-1.3,3.3L79.1,31l1.3-3.1l-0.3-0.4l-2.3,1.6l-1.2-1.6l6.6-4.7L84.9,25.1z M79.8,19.2l-3.2,7.7
						l-1.7-1.1l0.7-1.7l-2.1-1.9l-1.5,0.9l-1.5-1.3l7.6-4.1L79.8,19.2z M72.7,13.7c1.7,1,2.2,2.4,1.3,3.9c-1,1.6-2.6,1.7-4.2,0.6
						L69.3,18l-1.4,2.3l-1.7-1.1l4.2-6.9L72.7,13.7z M63.4,16.5c0.5,0.2,1,0.1,1.2-0.3c0.2-0.4,0-0.7-0.9-1.5
						c-1.3-1.2-1.7-1.9-1.3-3.2c0.6-1.5,2-1.8,3.4-1.2c1,0.4,1.5,0.8,2.1,1.4l-0.9,1.5c-0.5-0.7-1.1-1.2-1.7-1.4
						c-0.6-0.2-0.9-0.1-1.1,0.3c-0.1,0.4,0,0.6,0.8,1.4c1.4,1.2,1.8,2.1,1.4,3.3c-0.6,1.6-2.1,1.9-3.6,1.3c-1-0.4-1.8-0.9-2.4-1.6
						l0.9-1.5C61.9,15.6,62.7,16.2,63.4,16.5z M54.2,7.4l1.9,0.3l2.2,5l0.8-4.5l1.8,0.3l-1.4,8l-1.7-0.3l-2.3-5.3l-0.8,4.8l-1.8-0.3
						L54.2,7.4z M39.2,8.9c1.9-0.5,3.2,0.1,3.7,1.7c0.3,1.1-0.1,2-0.9,2.6l2.6,2.3l2.4-8l2.2-0.1l3.2,7.7l-2,0.4l-0.7-1.7l-2.8,0.2
						l-0.4,1.7l-2,0.1l0.1-0.2l-1.9,0.8l-2.5-2.3l-0.5,0.1l0.7,2.7l-1.9,0.5l-2.1-7.8L39.2,8.9z M21.9,50c0-0.2,0-0.4,0-0.6
						c0-7.4,2.8-14.1,7.3-19.2l14.6,18.2L21.9,50z M35.7,52.5l-12.3,6.2c-0.8-2.3-1.3-4.8-1.4-7.3L35.7,52.5z M47.2,43l-17-13.8
						c4.4-4.5,10.3-7.5,16.9-8.3L47.2,43z M34.2,10.4l1,1.4l-2.1,1.1l2.8,5.7l-1.8,0.9l-2.8-5.7l-2,1l-0.8-1.5L34.2,10.4z
						 M47.2,18.3l0,1.1c-7.1,0.8-13.4,4.1-18.1,8.9l-0.8-0.7C33.2,22.5,39.8,19.1,47.2,18.3z M24.7,15.9l1.1,1.3L23.6,19l1.1,1.3
						l1.6-1.4l1.3,1.1l-1.8,1.6l2,2.3l-1.5,1.3L21,19L24.7,15.9z M16.7,23.6c1.4-1.8,3.7-2,5.7-0.4c2,1.5,2.4,3.8,0.9,5.6
						c-1.4,1.8-3.7,2-5.7,0.4C15.7,27.7,15.3,25.4,16.7,23.6z M7.8,46.8l1.6,0l0,3.1l1.5,0l0-2.3l1.6-0.2l0,2.6l1.7,0l0-3.2l1.6,0
						l-0.1,5.1l-8.1-0.1L7.8,46.8z M16.2,58.4l-1.7,0c0.3-0.9,0.5-1.9,0.3-2.7c-0.1-0.6-0.4-0.9-0.9-0.8c-0.5,0.1-0.6,0.3-0.9,1.5
						c-0.4,1.7-0.8,2.5-2.1,2.7c-1.5,0.2-2.6-0.8-2.8-2.3c-0.2-1-0.1-1.7,0.1-2.5l1.7,0c-0.3,0.8-0.4,1.6-0.3,2.2
						c0.1,0.6,0.4,0.8,0.8,0.8c0.4-0.1,0.6-0.3,0.8-1.4c0.4-1.8,0.8-2.6,2.1-2.8c1.7-0.3,2.7,0.9,3,2.4
						C16.6,56.6,16.5,57.5,16.2,58.4z M17.1,40.8l-1.8,0.2l-0.6,2.7l1.5,0.9l-0.4,1.9L8.4,42l0.5-2.2l8.3-1.1L17.1,40.8z M17.8,38.4
						l-7.4-3.2l0.8-1.8l5.8,2.5l1-2.3l1.7,0.4L17.8,38.4z M19.2,49.7c0-8.3,3.2-15.8,8.4-21.4l0.7,0.9c-5,5.4-8,12.7-8,20.6
						c0,0.2,0,0.3,0,0.5l-1.1,0.1C19.2,50,19.2,49.9,19.2,49.7z M20.9,59.9c-1-2.8-1.5-5.7-1.7-8.8l1.1,0.1c0.1,2.9,0.7,5.6,1.6,8.2
						L20.9,59.9z M25.3,68.3c-1.6-2.2-2.9-4.5-3.9-7l1-0.3c1,2.6,2.4,5,4,7.2C26.1,68.2,25.7,68.3,25.3,68.3z M28.6,67.9
						c-1.8-2.2-3.4-4.7-4.5-7.4l19.4-5.4l-4.8,7.4l0.1,0.6l0.6,0.1l9.2-5.8l0.5,9.2C42.2,66.6,35.4,67,28.6,67.9z M51.8,58.6
						l-0.4,0.3L51,58.6l-0.6-4.9l-3.6,2.3l-0.5-0.1l0-0.5l2-3L40,54l-0.5-0.3l0.2-0.5l4.3-1.6l-2.6-0.4l-0.4-0.4l0.3-0.4l6.1-0.9
						l-6.2-7.3l0-0.5l0.5-0.1l7.6,5.7l-0.4-13.2c0-0.2,0.2-0.4,0.4-0.4c0.2,0,0.4,0.1,0.4,0.3l2.2,13.3l2.5-3.5l0.5-0.1l0.2,0.5
						l-0.6,2.5l3.9-2.7l0.6,0.1l0,0.6l-4.6,4.8l5.6,2.1l0.3,0.4l-0.4,0.3h-4.6l6.9,6.2l0,0.6l-0.3,0.2L62,59.2l-9-6.3L51.8,58.6z
						 M59.4,34.2l-0.5,0.2l-5.5,8.1l-3.7-21.7c0.3,0,0.6,0,1,0c9.2,0,17.3,4.3,22.6,11l-0.3,0l-13.8,9.2l0.6-6.2L59.4,34.2z
						 M52.5,66.5l2.6-10.1l12.6,11C62.6,66.9,57.5,66.6,52.5,66.5z M72.8,67.6L61.3,54.4l11,0c0.2,0,0.4-0.2,0.5-0.4
						c0-0.2-0.1-0.4-0.3-0.5l-13.8-4.8l14.8-16.3l0-0.3c3.6,4.8,5.8,10.8,5.8,17.3C79.3,56.3,76.9,62.6,72.8,67.6z M76.3,68.5
						c-0.4-0.1-0.8-0.1-1.2-0.2c4-5.2,6.3-11.6,6.3-18.6c0-16.9-13.7-30.5-30.5-30.5c-0.5,0-1,0-1.5,0l-0.2-1.1c0.6,0,1.1,0,1.7,0
						c17.5,0,31.6,14.2,31.6,31.6C82.5,56.7,80.2,63.2,76.3,68.5z M80.6,33.2l7.3-3.4l2.1,4.6L88.6,35l-1.3-2.8l-1.4,0.6l1,2.1
						l-1.3,0.9l-1.1-2.4l-1.5,0.7l1.3,2.9l-1.5,0.7L80.6,33.2z M83.1,38.5l7.8-1.9l0.5,1.9l-3.7,4l4.4-1.1l0.4,1.8l-7.8,1.9
						l-0.4-1.7l3.9-4.3l-4.7,1.2L83.1,38.5z M92.7,55.6l-3.6,1.2L92,59l-0.4,2.1l-4.5-3.7l-2.9-0.5l0.3-2l2.9,0.5l5.3-1.9L92.7,55.6
						z M92.6,51.8l-1.8-0.2c0.4-0.5,0.6-1.1,0.6-1.8c0-1.3-1-2-2.6-2c-1.6,0-2.5,0.9-2.4,2.2c0,0.7,0.3,1.2,0.7,1.8l-1.7,0.3
						c-0.4-0.6-0.7-1.4-0.7-2.3c-0.1-2.4,1.5-3.9,4-4c2.5-0.1,4.2,1.4,4.3,3.8C93.1,50.5,93,51.2,92.6,51.8z"/>
					<polygon id="Path_00000165930706991556212000000003366438137608772789_" class="st3" points="77.6,19.9 75,21.4 76.4,22.6 
											"/>
				</g>
				<path id="Shape_00000093868250391413515400000008999169428091470008_" class="st3" d="M52.2,1.9C25.1,1.9,3,23.9,3,51.1
					s22,49.2,49.2,49.2s49.2-22,49.2-49.2S79.4,1.9,52.2,1.9z M39.8,96.8C14.5,90-0.5,64,6.3,38.7C13,13.3,39.1-1.7,64.4,5.1
					c25.3,6.8,40.3,32.8,33.6,58.1C91.2,88.6,65.1,103.6,39.8,96.8z"/>
				<g id="Group_00000013178954424099499040000009558283199557613442_" transform="translate(11.566111, 49.761111)">
					<path id="Path_00000183244714598043450400000016122428580046907550_" class="st3" d="M58.3,39.1c-0.1-0.4-0.4-0.5-0.8-0.3
						l-0.3,0.1l0.4,1.1l0.3-0.1C58.3,39.8,58.4,39.5,58.3,39.1z"/>
					<polygon id="Path_00000060745262218195949810000007385743037971055019_" class="st3" points="53.5,41.7 54.4,41.5 53.5,40.2 
											"/>
					<path id="Path_00000156590142733812988820000002874479282231175601_" class="st3" d="M36.9,41.5l-0.4,0L36.4,44l0.4,0
						c0.7,0,1.2-0.3,1.3-1.2C38,42,37.6,41.5,36.9,41.5z"/>
					<path id="Shape_00000170999267422856569720000004552958631144234911_" class="st3" d="M40.4,33.8c-9.9,0-19.7,0.9-30,2.7
						c5.1,4.4,11.2,7.7,18.1,9.5c15.3,4.1,30.8,0.1,42.1-9.5C60.3,34.7,50.4,33.8,40.4,33.8z M25,41.8c0.4,0.1,0.7,0.1,1,0.1
						l0.4-1.2l-1.1-0.3l0.1-0.9l2.3,0.7l-0.8,2.7c-0.6,0.2-1.4,0.2-2.1,0c-1.8-0.5-2.4-2-1.9-3.7c0.5-1.7,1.9-2.6,3.6-2.1
						c0.7,0.2,1.2,0.6,1.6,1l-0.5,1c-0.3-0.4-0.8-0.8-1.4-1c-1.1-0.3-1.9,0.3-2.3,1.5C23.6,40.5,23.9,41.5,25,41.8z M32.1,42.6
						c-0.2,1.1-1,1.5-2,1.3c-1-0.2-1.6-0.9-1.4-2l0.5-2.4l1,0.2l-0.5,2.4c-0.1,0.5,0.1,0.9,0.5,1c0.5,0.1,0.7-0.2,0.8-0.7l0.5-2.4
						l1,0.2L32.1,42.6z M34,44.5l-1-0.1l0.5-4.1l1,0.1L34,44.5z M36.7,44.8l-1.4-0.1l0.3-4.1l1.4,0.1c1.4,0.1,2.1,1,2,2.2
						C38.9,44.1,38.1,44.9,36.7,44.8z M40.1,45L40,40.8l2.6,0l0,0.8l-1.6,0l0,0.8l1.2,0l0.1,0.8l-1.3,0l0,0.9l1.6,0l0,0.8L40.1,45z
						 M45.8,44.8c-0.8,0.1-1.5,0-2.1-0.2l0.1-1.3c0.6,0.3,1.3,0.4,1.9,0.4c0.4,0,0.7-0.2,0.7-0.6c0-0.3-0.2-0.5-1.1-0.7
						c-1.2-0.3-1.8-0.7-1.8-1.6c-0.1-1.1,0.7-1.8,1.8-1.9c0.8-0.1,1.3,0,1.8,0.2L47,40.2c-0.6-0.3-1.1-0.4-1.6-0.3
						c-0.4,0-0.6,0.2-0.6,0.5c0,0.3,0.2,0.4,1,0.6c1.3,0.3,1.9,0.7,2,1.7C47.9,44,47,44.7,45.8,44.8z M51,44l-1,0.2l-0.6-3.2
						l-1.1,0.2l-0.2-0.9l3.2-0.6l0.3,0.8l-1.2,0.2L51,44z M55.3,43l-0.5-0.8l-1.4,0.4l-0.1,0.9l-1,0.2l0.4-4.4l1.1-0.3l2.4,3.5
						L55.3,43z M58.3,42l-1,0.3L56,38.5l1.4-0.5c0.9-0.3,1.6-0.1,1.9,0.7c0.2,0.5,0,1-0.4,1.4l1.4,1.1l-1,0.5L58,40.6l-0.2,0.1
						L58.3,42z"/>
				</g>
				<g id="Group_00000038382209348775969960000002387096397778952332_" transform="translate(10.435556, 43.179444)">
					<path id="Shape_00000001648603733063357780000008207202625057679801_" class="st3" d="M12.9,36.6l-0.4,0l0.3,2.3l-2.3,0.3
						l-0.9-7.7l2.7-0.3c2-0.2,3.3,0.5,3.5,2.3C16,35.3,14.9,36.3,12.9,36.6z M12.4,32.9l-0.3,0l0.2,2.1l0.3,0c0.8-0.1,1.1-0.5,1-1.2
						C13.6,33.1,13.2,32.8,12.4,32.9z"/>
					<polygon id="Path_00000130640670926863878140000012057043054189342120_" class="st3" points="18.4,38.3 17.8,30.6 20.1,30.4 
						20.6,36.2 22.7,36 23.2,37.9 					"/>
					<path id="Shape_00000177486250803565922080000013951738715283852417_" class="st3" d="M27,29.9l2.6-0.1l2.9,7.3l-2.3,0.5
						l-0.5-1.3l-2.4,0.1l-0.3,1.3l-2.2,0.1L27,29.9z M27.6,34.6l1.4-0.1l-0.8-2.4L27.6,34.6z"/>
					<polygon id="Path_00000033334501804397031340000006138972102743871641_" class="st3" points="37.5,31.5 37.6,37.3 35.3,37.3 
						35.2,31.5 33.1,31.6 33.1,29.7 39.3,29.5 39.6,31.4 					"/>
					<polygon id="Path_00000152966969389653268710000013823973860255418757_" class="st3" points="41.8,37.2 41.8,29.5 44.1,29.5 
						44.1,37.3 					"/>
					<polygon id="Path_00000092428652911289686870000001675715046989018278_" class="st3" points="51.2,37.4 48.8,33.3 48.7,37.3 
						46.6,37.3 46.8,29.6 49.1,29.6 51.3,33.4 51.4,29.7 53.5,29.8 53.3,37.5 					"/>
					<path id="Path_00000067946797623630964500000004009559090012427948_" class="st3" d="M59,37.9c-1.9-0.1-3.2-1.2-3.1-3.4
						l0.3-4.6l2.3,0.2l-0.3,4.6c-0.1,0.8,0.3,1.3,1,1.4c0.7,0,1.1-0.4,1.1-1.2l0.3-4.7l2.3,0.2l-0.3,4.6C62.4,37.2,60.8,38,59,37.9z
						"/>
					<polygon id="Path_00000061457875266211002700000004803429752465250967_" class="st3" points="71.3,38.9 71.5,34.2 69.9,38.8 
						67.7,38.5 67.2,33.7 66.4,38.4 64.5,38.2 65.8,30.6 68.8,30.9 69.4,35.8 71,31.1 73.8,31.4 73.6,39.1 					"/>
				</g>
			</g>
		</g>
	</g>
</g>
</svg>
