<?xml version="1.0" encoding="utf-8"?>
<!-- Generator: Adobe Illustrator 27.4.0, SVG Export Plug-In . SVG Version: 6.00 Build 0)  -->
<svg version="1.1" id="Layer_1" xmlns="http://www.w3.org/2000/svg" xmlns:xlink="http://www.w3.org/1999/xlink" x="0px" y="0px"
	 viewBox="0 0 50 50" style="enable-background:new 0 0 50 50;" xml:space="preserve">
<style type="text/css">
	.st0{fill:#164467;}
	.st1{fill-rule:evenodd;clip-rule:evenodd;fill:#72C059;}
	.st2{fill:#72C059;}
	.st3{fill:#B4B4B4;}
	.st4{fill:#E6F0F6;}
	.st5{fill:#FFFFFF;}
</style>
<g>
	<path class="st0" d="M25.1,31.6c0.2-0.3,0.3-0.5,0.5-0.6c5.4-5.4,10.7-10.7,16.1-16c0.3-0.3,0.8-0.6,1.2-0.7
		c0.7-0.2,1.5,0.2,1.8,0.8c0.4,0.6,0.3,1.4-0.1,2c-0.1,0.2-0.3,0.4-0.5,0.5C38.2,23.4,32.4,29.2,26.6,35c-1.2,1.1-2.1,1.2-3.2,0
		c-5.9-5.8-11.7-11.7-17.6-17.5c-0.3-0.3-0.6-0.7-0.7-1.2c-0.2-0.7,0.2-1.5,0.8-1.9C6.5,14,7.4,14.1,8,14.5c0.2,0.1,0.3,0.3,0.5,0.5
		c5.3,5.3,10.7,10.7,16,16C24.7,31.1,24.8,31.3,25.1,31.6z"/>
</g>
</svg>
