<?xml version="1.0" encoding="utf-8"?>
<!-- Generator: Adobe Illustrator 27.4.0, SVG Export Plug-In . SVG Version: 6.00 Build 0)  -->
<svg version="1.1" id="Layer_1" xmlns="http://www.w3.org/2000/svg" xmlns:xlink="http://www.w3.org/1999/xlink" x="0px" y="0px"
	 viewBox="0 0 75 75" style="enable-background:new 0 0 75 75;" xml:space="preserve">
<style type="text/css">
	.st0{fill:#FFFFFF;}
	.st1{fill:#72C059;}
</style>
<g>
	<g>
		<path class="st0" d="M37,71.1c-4.2,0-8.1-0.8-11.5-2.4C18.2,65.3,12,60.1,8.7,54.5c-2-3.4-3.5-7.1-4.2-10.9
			C3.4,38,4.3,32.7,5.4,28.4c1.7-6.8,6.2-13.4,12.3-17.9c3.2-2.4,6.7-3.7,10.4-5C28.7,5.3,29.4,5,30,4.8c2.4-0.9,4.7-1.3,7.2-1.3
			c2.3,0,4.6,0.3,7.3,0.9c1.6,0.3,3.8,1.3,5.6,2c0.4,0.2,0.9,0.4,1.3,0.5c2.1,0.9,4.1,2.3,5.9,3.7c2.7,2,5.1,4.4,7.2,7.2
			c3.1,4.3,5.3,9.5,6.1,14.9c0.6,3.6,1.1,10.6-1.3,16.3c-2.7,6.3-6.9,11.7-12,15.5C51.5,68.7,44.2,71.1,37,71.1z M37.4,4.4
			c-7.1,0-13.8,2.2-19.5,6.4C9.3,17.1,4.2,27.3,4.4,38c0.1,4.8,1.2,9.6,3.3,13.9C10.1,57,14.4,61.5,20,65c5.8,3.6,12.1,5.6,17.7,5.6
			l0.3,0c8.8-0.1,17.4-3.7,22.5-9.4c1.6-1.8,3.3-3.6,4.6-5.7c1-1.6,1.7-3.3,2.4-4.9c0.4-0.9,0.8-1.8,1.2-2.7
			c0.9-1.8,1.1-3.7,1.4-5.5l0.1-0.8c1.2-8.6-0.8-16.5-6-23.6C58,9.5,48,4.4,37.4,4.4z"/>
		<path class="st1" d="M37.2,1.9c-2.5,0-5,0.4-7.7,1.4C25,5.1,20.8,6.4,16.8,9.3C10.7,13.8,5.8,20.6,3.9,28c-1.3,5.3-2,10.4-1,15.9
			c0.8,4,2.3,7.9,4.4,11.4C11.3,61.8,18,66.9,24.8,70c3.8,1.7,8,2.5,12.2,2.5c7.5,0,15.2-2.6,21.1-6.9c5.6-4.1,9.8-9.7,12.5-16.1
			c2.2-5.2,2.3-11.7,1.4-17.1c-0.9-5.6-3-11-6.4-15.6c-2.1-2.9-4.6-5.4-7.5-7.5c-2-1.4-4-2.9-6.3-3.9c-2.1-0.9-5-2.2-7.2-2.7
			C42.1,2.3,39.6,1.9,37.2,1.9L37.2,1.9z M37.7,69.1c-5.9,0-11.9-2.3-16.9-5.4c-4.9-3.1-9.2-7.2-11.7-12.4C7,47.1,5.9,42.6,5.9,38
			c-0.1-10.2,4.7-20,12.9-26C24.4,7.9,31,5.9,37.4,5.9c9.7,0,19.4,4.5,25.6,12.9c4.9,6.7,6.9,14.3,5.7,22.5c-0.3,2-0.4,4-1.3,5.9
			c-1.2,2.5-2,5.1-3.5,7.5c-1.3,2-2.8,3.8-4.4,5.5C54.2,66,45.6,69,38,69.1C37.9,69.1,37.8,69.1,37.7,69.1L37.7,69.1z"/>
	</g>
</g>
<g>
	<g>
		<path class="st1" d="M20,49.3c0-9,0-17.9,0-26.9c0.3-0.6,0.7-0.8,1.4-0.8c10.8,0,21.6,0,32.4,0c0.9,0,1.3,0.4,1.3,1.3
			c0,8.6,0,17.3,0,25.9c0,0.9-0.4,1.3-1.3,1.3c-1.6,0-3.3,0-4.9,0c-0.1,0-0.3,0-0.4,0c0,0.2,0,0.3,0,0.4c0,1.6,0,3.2,0,4.8
			c0,0.6-0.2,1.1-0.8,1.3c-0.2,0-0.3,0-0.5,0c-0.9-0.6-1.9-1.2-2.8-1.8c-0.2-0.1-0.3-0.1-0.5,0c-0.9,0.6-1.9,1.2-2.8,1.8
			c-0.2,0-0.3,0-0.5,0c-0.6-0.2-0.8-0.7-0.8-1.3c0-1.6,0-3.2,0-4.9c0-0.1,0-0.2,0-0.4c-0.2,0-0.3,0-0.5,0c-6,0-12,0-18,0
			C20.7,50.1,20.2,49.9,20,49.3z M44.1,48.9c1.8,0,3.2-1.5,3.2-3.2c0-1.8-1.5-3.2-3.2-3.2c-1.8,0-3.2,1.5-3.2,3.2
			C40.9,47.4,42.3,48.9,44.1,48.9z M37.5,30.3c3.2,0,6.4,0,9.6,0c0.1,0,0.3,0,0.4,0c0.6-0.1,0.9-0.5,0.9-1.1
			c-0.1-0.6-0.5-0.9-1.2-0.9c-6.4,0-12.9,0-19.3,0c-0.1,0-0.3,0-0.4,0c-0.6,0.1-0.9,0.6-0.8,1.2c0.1,0.5,0.5,0.8,1.2,0.8
			C31,30.3,34.3,30.3,37.5,30.3z M34.2,34.8c-2.2,0-4.4,0-6.6,0c-0.8,0-1.3,0.7-1,1.4c0.2,0.5,0.5,0.7,1.1,0.7c4.3,0,8.5,0,12.8,0
			c0.1,0,0.3,0,0.4,0c0.6-0.1,0.9-0.7,0.8-1.2c-0.1-0.5-0.5-0.8-1.1-0.8C38.6,34.8,36.4,34.8,34.2,34.8z M30.9,43.5c1,0,2.1,0,3.1,0
			c0.1,0,0.3,0,0.4,0c0.5-0.1,0.8-0.6,0.7-1.1c-0.1-0.5-0.5-0.9-1.1-0.9c-2.1,0-4.3,0-6.4,0c-0.7,0-1.1,0.4-1.1,1c0,0.6,0.5,1,1.1,1
			C28.8,43.5,29.9,43.5,30.9,43.5z"/>
	</g>
</g>
</svg>
