<?xml version="1.0" encoding="utf-8"?>
<!-- Generator: Adobe Illustrator 27.4.0, SVG Export Plug-In . SVG Version: 6.00 Build 0)  -->
<svg version="1.1" id="Layer_1" xmlns="http://www.w3.org/2000/svg" xmlns:xlink="http://www.w3.org/1999/xlink" x="0px" y="0px"
	 viewBox="0 0 75 75" style="enable-background:new 0 0 75 75;" xml:space="preserve">
<style type="text/css">
	.st0{fill:#FFFFFF;}
	.st1{fill:#72C059;}
</style>
<g>
	<g>
		<path class="st0" d="M36.3,71c-4.5,0-8.6-0.8-11.7-2.3c-6.2-3-11.4-7.4-14.9-12.7c-6.4-9.6-7.5-22.7-2.8-31.9
			C10.6,16.9,16,11,21.8,7.9c3.5-1.9,7.2-3.1,11.1-3.7c1.3-0.2,2.6-0.3,3.9-0.3c3.3,0,6.8,0.6,11.2,1.9c6.8,2,13.1,6.8,17.3,13.1
			c2.2,3.3,3.4,6.9,4.6,10.6c0.2,0.6,0.4,1.3,0.6,1.9c1.7,5.3,1,9.5-0.2,14.5c-0.4,1.6-1.4,3.8-2.3,5.5c-0.2,0.4-0.4,0.9-0.6,1.2
			c-1,2.1-2.5,3.9-4,5.8c-2.1,2.6-4.7,4.9-7.5,6.8c-4.4,2.9-9.7,4.8-15.2,5.4C39.3,70.9,37.8,71,36.3,71z M37.5,4.4
			c-4.5,0-9,0.9-13,2.7c-5.2,2.2-9.9,6.3-13.6,11.7c-4,5.8-6.2,12.1-6.4,17.8c-0.3,8.8,2.9,17.6,8.4,22.9c1.7,1.7,3.5,3.4,5.5,4.8
			c1.6,1.1,3.2,1.9,4.8,2.6c0.9,0.4,1.8,0.9,2.7,1.3c1.7,1,3.6,1.3,5.4,1.6L32,70c2.1,0.4,4.2,0.6,6.2,0.6c6.2,0,12.2-1.9,17.7-5.5
			c7.4-4.9,12.4-12.4,14.1-21.1c1.7-8.7,0-17.5-4.9-24.9C59.1,10.2,49.2,4.7,38.5,4.4C38.1,4.4,37.8,4.4,37.5,4.4z"/>
		<path class="st1" d="M36.8,2.4c-1.4,0-2.7,0.1-4.2,0.3c-4,0.6-8,1.9-11.6,3.9C14.4,10.2,9,16.7,5.6,23.4
			c-5.3,10.3-3.5,24,2.8,33.4c3.8,5.8,9.3,10.2,15.5,13.2c3.7,1.8,8.1,2.4,12.4,2.4c1.6,0,3.2-0.1,4.7-0.3
			c5.6-0.6,11.1-2.5,15.9-5.7c3-2,5.6-4.4,7.8-7.1c1.5-1.9,3.1-3.9,4.2-6.1c1-2,2.5-4.9,3-7c1.3-5.4,2-9.8,0.1-15.3
			c-1.5-4.5-2.7-8.8-5.4-12.9C62.3,11.8,55.8,6.6,48.5,4.4C44.6,3.2,40.8,2.4,36.8,2.4L36.8,2.4z M38.1,69.1c-1.9,0-3.9-0.2-5.9-0.6
			c-2-0.4-4-0.6-5.8-1.6c-2.4-1.3-5-2.3-7.3-3.9c-1.9-1.3-3.6-3-5.3-4.7c-5.5-5.5-8.2-14.2-7.9-21.8c0.2-6,2.8-12,6.2-17
			c3.3-4.8,7.6-8.9,13-11.2c3.9-1.7,8.2-2.6,12.4-2.6c0.3,0,0.7,0,1,0C48.6,6.2,58.2,11.5,63.8,20c9.7,14.5,5.7,34.2-8.8,43.8
			C49.7,67.3,44.1,69.1,38.1,69.1L38.1,69.1z"/>
	</g>
</g>
<g>
	<g>
		<path class="st1" d="M37,18.4c-0.7,0.2-1.4,0.3-2,0.7c-6.4,3.7-12.8,7.4-19.2,11.1c-0.9,0.5-1,1.7,0,2.2c1.3,0.7,2.6,1.5,3.9,2.3
			c5,2.9,10.1,5.9,15.1,8.8c1.3,0.8,2.7,0.9,4,0.1c6.4-3.7,12.8-7.4,19.2-11.2c1-0.6,1-1.6,0-2.2c-6.4-3.7-12.8-7.4-19.2-11.1
			C38.4,18.8,37.7,18.6,37,18.4z M22.3,38.9c0,2,0,4,0,5.9c0,1.5,0.7,2.6,2,3.3c2.6,1.5,5.2,3.1,7.9,4.5c3,1.7,6.2,1.9,9.2,0.3
			c2.9-1.5,5.7-3.2,8.6-4.9c1.1-0.7,1.7-1.8,1.8-3.1c0-1.9,0-3.8,0-5.7c0-0.1,0-0.1,0-0.3c-0.2,0.1-0.3,0.2-0.5,0.3
			c-3.6,2.1-7.2,4.2-10.8,6.3c-2.2,1.3-4.5,1.3-6.7,0c-2.5-1.5-5-2.9-7.5-4.4C24.9,40.4,23.7,39.7,22.3,38.9z M58.7,34.9
			c-0.9,0.5-1.7,1-2.5,1.4c-0.3,0.2-0.4,0.4-0.4,0.7c0,3.2,0,6.3,0,9.5c0,0.3-0.1,0.5-0.3,0.7c-1.1,1-1.1,2.6-0.1,3.6
			c1,1,2.6,1,3.6,0c1-1,1-2.6,0-3.6c-0.2-0.2-0.3-0.4-0.3-0.8c0-3.7,0-7.3,0-11C58.7,35.3,58.7,35.2,58.7,34.9z"/>
	</g>
	<g>
		<path class="st1" d="M37,18.4c0.7,0.2,1.4,0.3,1.9,0.7c6.4,3.7,12.8,7.4,19.2,11.1c1,0.6,1,1.6,0,2.2c-6.4,3.7-12.8,7.4-19.2,11.2
			c-1.3,0.8-2.7,0.7-4-0.1c-5-2.9-10.1-5.9-15.1-8.8c-1.3-0.8-2.6-1.5-3.9-2.3c-1-0.5-0.9-1.7,0-2.2c6.4-3.7,12.8-7.4,19.2-11.1
			C35.7,18.8,36.4,18.6,37,18.4z"/>
	</g>
	<g>
		<path class="st1" d="M22.3,38.9c1.3,0.8,2.6,1.5,3.8,2.2c2.5,1.5,5,2.9,7.5,4.4c2.2,1.3,4.5,1.3,6.7,0c3.6-2.1,7.2-4.2,10.8-6.3
			c0.1-0.1,0.3-0.2,0.5-0.3c0,0.1,0,0.2,0,0.3c0,1.9,0,3.8,0,5.7c0,1.3-0.6,2.4-1.8,3.1c-2.8,1.7-5.7,3.4-8.6,4.9
			c-3.1,1.6-6.2,1.4-9.2-0.3c-2.6-1.5-5.3-3-7.9-4.5c-1.3-0.7-1.9-1.9-2-3.3C22.3,42.9,22.3,40.9,22.3,38.9z"/>
	</g>
	<g>
		<path class="st1" d="M58.7,34.9c0,0.3,0,0.5,0,0.6c0,3.7,0,7.3,0,11c0,0.3,0.1,0.5,0.3,0.8c1.1,1,1,2.6,0,3.6c-1,1-2.6,1-3.6,0
			c-1-1-1-2.7,0.1-3.6c0.2-0.2,0.3-0.4,0.3-0.7c0-3.2,0-6.3,0-9.5c0-0.4,0.1-0.6,0.4-0.7C57,35.9,57.8,35.4,58.7,34.9z"/>
	</g>
</g>
</svg>
