<?xml version="1.0" encoding="utf-8"?>
<!-- Generator: Adobe Illustrator 27.4.0, SVG Export Plug-In . SVG Version: 6.00 Build 0)  -->
<svg version="1.1" id="Layer_1" xmlns="http://www.w3.org/2000/svg" xmlns:xlink="http://www.w3.org/1999/xlink" x="0px" y="0px"
	 viewBox="0 0 75 75" style="enable-background:new 0 0 75 75;" xml:space="preserve">
<style type="text/css">
	.st0{fill:#FFFFFF;}
	.st1{fill:#72C059;}
</style>
<g>
	<g>
		<path class="st0" d="M37.5,71.4c-0.8,0-1.7-0.1-2.4-0.2c-6.8-0.9-13.1-3.4-18.2-7.4C7.9,56.8,2.6,44.7,4.2,34.5
			c1.2-8,4.5-15.3,9.1-20.1c2.8-2.9,5.9-5.3,9.3-7C27.7,4.8,33,4.3,37.5,4.1c0.3,0,0.6,0,0.9,0c6.8,0,13.9,2.6,19.6,7
			c3.1,2.5,5.3,5.4,7.7,8.6c0.4,0.5,0.8,1.1,1.2,1.6c3.3,4.4,4,8.7,4.4,13.8c0.2,1.6-0.2,4-0.4,5.9c-0.1,0.5-0.1,0.9-0.2,1.4
			c-0.3,2.3-1.1,4.5-1.9,6.7c-1.2,3.2-2.9,6.2-5,8.9c-3.3,4.2-7.7,7.6-12.7,10C46.5,70.2,41.6,71.4,37.5,71.4z M37.4,4.4
			c-3.2,0-6.4,0.5-9.5,1.4c-4.6,1.4-8.9,3.8-12.5,7c-4.2,3.8-7.4,9.1-9.2,15.4C4.3,34.9,4.2,41.6,5.8,47c2.5,8.4,8.3,15.7,15.2,19.1
			c2.1,1.1,4.4,2.1,6.8,2.8c1.8,0.5,3.6,0.8,5.4,1c1,0.1,2,0.2,2.9,0.4c0.6,0.1,1.3,0.2,2,0.2c1.3,0,2.5-0.2,3.7-0.4l0.8-0.1
			c8.6-1.2,15.7-5.3,21.1-12.2c11.2-14.4,8.6-35.3-5.8-46.5C52.1,6.9,44.8,4.4,37.4,4.4z"/>
		<path class="st1" d="M38.4,2.6c-0.3,0-0.6,0-1,0C32,2.8,26.9,3.5,21.9,6c-3.6,1.8-6.9,4.4-9.7,7.3C7,18.9,3.9,26.8,2.7,34.2
			C1,45.7,7,58.1,16,65.1c5.5,4.3,12,6.8,18.9,7.7c0.9,0.1,1.7,0.2,2.6,0.2c4.9,0,10-1.5,14.2-3.5C56.9,67,61.6,63.5,65,59
			c2.2-2.8,3.9-5.9,5.2-9.3c0.8-2.3,1.7-4.6,2-7.1c0.3-2.2,0.8-5.4,0.6-7.6c-0.5-5.5-1.2-9.9-4.7-14.6c-2.9-3.8-5.3-7.5-9.2-10.5
			C53.2,5.4,45.8,2.6,38.4,2.6L38.4,2.6z M38,69.1c-0.6,0-1.1,0-1.7-0.1c-2.7-0.5-5.5-0.6-8.2-1.4c-2.3-0.7-4.4-1.7-6.5-2.8
			c-7-3.4-12.2-10.9-14.4-18.2c-1.7-5.8-1.2-12.3,0.5-18c1.6-5.6,4.4-10.8,8.8-14.7c3.4-3.1,7.5-5.3,11.9-6.6c2.9-0.9,6-1.3,9-1.3
			c7,0,13.9,2.3,19.5,6.6c13.8,10.7,16.2,30.6,5.5,44.4c-5.1,6.6-11.8,10.5-20.1,11.7C40.9,68.8,39.5,69.1,38,69.1L38,69.1z"/>
	</g>
</g>
<g>
	<g>
		<path class="st1" d="M20.5,21.3c0.8,0.1,1.5,0.2,2.3,0.3c3.3,0.5,6.4,1.2,9.3,3c1.6,1,3,2.2,3.9,3.9c0.7,1.4,1.1,2.8,1,4.3
			c-0.1,1-0.3,2.1-0.5,3.1c0,0.1,0,0.3,0,0.4c1.1,1.8,1.9,3.7,2.4,5.7c0,0,0,0,0.1,0.1c0.1-0.1,0.1-0.2,0.2-0.3
			c0.6-0.8,1.2-1.6,1.8-2.4c0.2-0.2,0.2-0.4,0.2-0.6c-0.3-1.1-0.3-2.2-0.1-3.3c0.3-1.8,1.4-3.2,2.8-4.3c1.5-1.2,3.3-1.8,5.1-2.4
			c1.7-0.5,3.5-0.8,5.3-0.9c0.2,0,0.4,0,0.6,0c-0.1,0.6-0.1,1.3-0.2,1.9c-0.3,2.4-0.8,4.7-1.9,6.9c-0.7,1.5-1.6,2.7-3,3.7
			c-1.3,0.9-2.7,1.3-4.4,1.2c0.3-2.7,1.7-4.9,3.2-7c-0.3,0.3-0.7,0.6-1,0.9c-2.2,2-3.8,4.4-5.3,6.9c-0.7,1.3-1.5,2.6-1.9,4.1
			c-0.2,0.6-0.4,1.1-0.4,1.7c-0.1,0.6,0.1,1.1,0.1,1.7c0.1,1.7,0.1,3.5,0.2,5.2c0,0.9-0.6,1.5-1.5,1.6c-0.8,0-1.5-0.5-1.6-1.4
			c0-0.2,0-0.5,0-0.8c-0.1-2.3-0.2-4.6-0.4-6.9c-0.3-3.2-1.2-6.3-2.6-9.2c-1.4-3-3.1-5.8-5.1-8.4c0-0.1-0.1-0.1-0.1-0.2
			c1.3,2.9,2.2,5.8,2.3,9c-0.7-0.1-1.3-0.1-1.9-0.2c-2.4-0.4-4.2-1.9-5.6-3.8c-1.4-1.9-2.2-4.1-2.8-6.4c-0.6-2.1-0.9-4.2-1.1-6.3
			c0-0.2,0-0.5,0-0.7C20.1,21.3,20.3,21.3,20.5,21.3z"/>
	</g>
</g>
</svg>
