<?xml version="1.0" encoding="utf-8"?>
<!-- Generator: Adobe Illustrator 27.4.0, SVG Export Plug-In . SVG Version: 6.00 Build 0)  -->
<svg version="1.1" id="Layer_1" xmlns="http://www.w3.org/2000/svg" xmlns:xlink="http://www.w3.org/1999/xlink" x="0px" y="0px"
	 viewBox="0 0 105 102.1" style="enable-background:new 0 0 105 102.1;" xml:space="preserve">
<style type="text/css">
	.st0{fill:#164467;}
	.st1{fill-rule:evenodd;clip-rule:evenodd;fill:#72C059;}
	.st2{fill:#72C059;}
	.st3{fill:#B4B4B4;}
	.st4{fill:#E6F0F6;}
	.st5{fill:#FFFFFF;}
</style>
<g>
	<path class="st5" d="M52.5,2.6C25.8,2.6,4.1,24.3,4.1,51s21.7,48.5,48.5,48.5S101,77.8,101,51C101,24.3,79.3,2.6,52.5,2.6L52.5,2.6
		z M97.4,51c0,24.7-20.1,44.8-44.8,44.8S7.7,75.8,7.7,51S27.8,6.2,52.5,6.2S97.4,26.3,97.4,51z"/>
	<path class="st5" d="M74.9,49.1L41.8,32.5c-0.9-0.4-1.9-0.3-2.6,0.4c-0.4,0.4-0.7,1-0.7,1.6v33c0,1.3,1,2.3,2.2,2.3
		c0.4,0,0.7-0.1,1.1-0.3L74.9,53c0.8-0.4,1.3-1.1,1.3-1.9C76.2,50.2,75.7,49.5,74.9,49.1L74.9,49.1z M70.7,51L42.1,65.3V36.7
		L70.7,51z"/>
</g>
</svg>
