<?xml version="1.0" encoding="utf-8"?>
<!-- Generator: Adobe Illustrator 27.4.0, SVG Export Plug-In . SVG Version: 6.00 Build 0)  -->
<svg version="1.1" id="Layer_1" xmlns="http://www.w3.org/2000/svg" xmlns:xlink="http://www.w3.org/1999/xlink" x="0px" y="0px"
	 viewBox="0 0 75 75" style="enable-background:new 0 0 75 75;" xml:space="preserve">
<style type="text/css">
	.st0{fill:#FFFFFF;}
	.st1{fill:#72C059;}
</style>
<g>
	<g>
		<path class="st0" d="M37.5,70.9c-11.5,0-23-6.3-28.1-15.4c-3.9-7-5.8-14.8-5.2-21.4c0.4-4,1.4-7.8,3-11.3
			c2.4-5.2,6.3-8.9,9.8-11.7c5.4-4.5,12.9-7.1,20.5-7.1c4,0,7.6,1,11.4,2.1c0.6,0.2,1.3,0.4,1.9,0.5c5.4,1.5,8.5,4.4,12,8.2
			c1.1,1.2,2.3,3.3,3.3,4.9c0.2,0.4,0.5,0.8,0.7,1.2c1.2,1.9,1.9,4.3,2.6,6.5c1,3.2,1.5,6.6,1.5,10c0,5.3-1.3,10.7-3.9,15.7
			c-1.7,3.3-5.3,9.2-10.7,12.4C50.4,69.1,43.9,70.9,37.5,70.9z M37.5,4.4c-10.7,0-20.8,5.2-27,14c-2.8,3.9-4.7,8.5-5.6,13.2
			c-1,5.5-0.3,11.7,2.2,17.8c2.6,6.5,6.6,11.9,11.2,15.2c5.6,4,12.4,6.2,18.8,6.2h0c1.7,0,3.4-0.2,4.9-0.5c2.3-0.5,4.8-1,7.1-1.9
			c1.8-0.7,3.3-1.6,4.8-2.5c0.8-0.5,1.7-1,2.6-1.5c1.8-0.9,3.1-2.3,4.3-3.6l0.6-0.6c6-6.2,9.1-13.8,9.1-22.6
			C70.6,19.2,55.7,4.4,37.5,4.4z"/>
		<path class="st1" d="M37.5,2.6C29.8,2.6,21.9,5.1,16,10c-4.2,3.5-7.8,7.2-10.1,12.3C4.1,26,3.1,30,2.7,34
			C2,41.6,4.4,49.7,8.1,56.3c5.7,10.1,18,16.2,29.4,16.2c6.9,0,13.7-2.1,19.6-5.6c4.8-2.9,8.7-8.1,11.3-13c2.6-5,4.1-10.7,4.1-16.4
			c0-3.6-0.5-7.1-1.6-10.5c-0.7-2.3-1.5-4.7-2.8-6.8c-1.2-1.9-2.7-4.7-4.2-6.4c-3.8-4-7-7.1-12.7-8.6C46.5,4,42.4,2.6,37.5,2.6
			L37.5,2.6z M37.1,69.2c-6.3,0-12.9-2.4-17.9-5.9c-4.9-3.5-8.5-9-10.7-14.5c-2.2-5.4-3.2-11.3-2.1-17C7.2,27.3,9,23,11.7,19.2
			c5.9-8.3,15.6-13.3,25.8-13.3c17.4,0,31.6,14.2,31.6,31.6c0,8.4-2.9,15.6-8.7,21.5c-1.4,1.4-2.7,3-4.5,3.9
			c-2.5,1.3-4.7,2.9-7.3,3.9c-2.2,0.9-4.5,1.4-6.8,1.8C40.3,69.1,38.7,69.2,37.1,69.2L37.1,69.2z"/>
	</g>
</g>
<g>
	<g>
		<path class="st1" d="M18.9,36.4c0-2.6,0-5.1,0-7.7c0.7-1.9,1.5-2.5,3.6-2.5c2,0,4,0,6.1,0c0.1,0,0.3,0,0.4,0
			c0-0.1,0.1-0.2,0.1-0.3c0.6-2.6,2.8-4.4,5.4-4.4c1.9,0,3.8,0,5.7,0c2,0,3.6,0.9,4.7,2.6c0.4,0.6,0.6,1.3,0.9,2.1c0,0,0.2,0,0.3,0
			c2.2,0,4.4,0,6.6,0c1.3,0,2.3,0.6,2.9,1.8c0.1,0.2,0.2,0.5,0.3,0.7c0,2.6,0,5.1,0,7.7c0,0,0,0.1,0,0.1c-0.4,1.6-1.5,2.4-3.1,2.4
			c-3.9,0-7.8,0-11.7,0c-0.1,0-0.3,0-0.4,0c-0.5-2-1.6-3.1-3.2-3c-1.7,0-2.8,1.1-3.2,3c0,0-0.1,0-0.1,0c-4.1,0-8.2,0-12.3,0
			c-0.7,0-1.4-0.3-1.9-0.8C19.3,37.6,19.1,37,18.9,36.4z M42.9,26.2c0-0.1-0.1-0.2-0.1-0.3c-0.5-1-1.4-1.6-2.5-1.6
			c-1.9,0-3.8,0-5.7,0c-1.2,0-2,0.6-2.5,1.7c0,0.1-0.1,0.2-0.1,0.3C35.6,26.2,39.2,26.2,42.9,26.2z"/>
	</g>
	<g>
		<path class="st1" d="M55.1,41.1c-1.2,0.6-2.5,0.5-3.8,0.5c-3.5,0-7,0-10.5,0c-0.3,0-0.4,0.1-0.5,0.3c-0.6,1.3-1.5,2-2.9,2
			c-1.4,0-2.4-0.7-2.9-2c-0.1-0.3-0.2-0.3-0.5-0.3c-4,0-7.9,0-11.9,0c-0.8,0-1.5-0.1-2.2-0.4c-0.1,0-0.1,0-0.2,0c0,0.1,0,0.2,0,0.4
			c0,2.6,0,5.1,0,7.7c0,1.9,1.2,3.1,3.1,3.1c9.7,0,19.5,0,29.2,0c1.9,0,3.1-1.2,3.1-3.1c0-1.5,0-3,0-4.5
			C55.1,43.6,55.1,42.4,55.1,41.1z"/>
	</g>
	<g>
		<path class="st1" d="M39.2,40.1C39.2,40.1,39.2,40.1,39.2,40.1c0-0.1,0-0.3,0-0.4c0-0.8-0.8-1.5-1.8-1.5c-1,0-1.8,0.7-1.8,1.5
			c0,0.3,0,0.5,0,0.8c0,0.8,0.7,1.4,1.6,1.5c0.9,0.1,1.7-0.4,1.9-1.1C39.2,40.6,39.2,40.3,39.2,40.1z"/>
	</g>
</g>
</svg>
