<?xml version="1.0" encoding="utf-8"?>
<!-- Generator: Adobe Illustrator 27.4.0, SVG Export Plug-In . SVG Version: 6.00 Build 0)  -->
<svg version="1.1" id="Layer_1" xmlns="http://www.w3.org/2000/svg" xmlns:xlink="http://www.w3.org/1999/xlink" x="0px" y="0px"
	 viewBox="0 0 75 75" style="enable-background:new 0 0 75 75;" xml:space="preserve">
<style type="text/css">
	.st0{fill:#FFFFFF;}
	.st1{fill:#72C059;}
</style>
<g>
	<g>
		<path class="st0" d="M36,71.2c-2.7,0-5.1-0.4-7.3-1c-6.6-2.1-12.3-5.8-16.5-10.6C4.8,50.9,1.9,38,5.4,28.2
			c2.7-7.6,7.3-14.1,12.7-18c3.3-2.3,6.8-4.1,10.5-5.1c2.5-0.7,5-1.1,7.8-1.1c2.2,0,4.6,0.2,7.5,0.7c7,1.1,13.8,5,18.9,10.7
			c2.6,3,4.2,6.4,5.9,9.9c0.3,0.6,0.6,1.2,0.9,1.8c2.4,5,2.2,9.3,1.7,14.4c-0.2,1.6-0.9,3.9-1.5,5.8c-0.2,0.5-0.3,0.9-0.4,1.3
			c-0.7,2.2-2,4.2-3.2,6.2c-1.8,2.9-4,5.5-6.5,7.8c-4,3.5-9,6.1-14.4,7.4C42.1,70.8,38.9,71.2,36,71.2z M37.4,4.4
			c-1.1,0-2.2,0.1-3.3,0.2C29.3,5,24.6,6.6,20.5,9c-4.8,2.9-9,7.5-11.9,13.4c-3.2,6.3-4.6,12.8-4,18.5c0.9,8.7,5.2,17,11.3,21.6
			c1.9,1.4,3.9,2.9,6.1,4.1c1.7,0.9,3.4,1.4,5.1,2c0.9,0.3,1.9,0.6,2.8,1c1.9,0.7,3.8,0.8,5.6,0.9l0.8,0c0.6,0,1.2,0,1.8,0
			c7.9,0,15-2.7,21.2-8.1c6.6-5.8,10.6-13.9,11.2-22.7s-2.3-17.4-8.1-24C56.1,8.5,47,4.4,37.4,4.4z"/>
		<path class="st1" d="M36.3,2.6c-2.7,0-5.4,0.3-8.2,1.1c-3.9,1.1-7.6,3-10.9,5.4C11,13.5,6.5,20.6,4,27.7
			c-3.9,10.9-0.3,24.2,7.2,32.8c4.6,5.2,10.5,8.9,17.1,11.1c2.4,0.8,5.1,1.1,7.7,1.1c3.2,0,6.5-0.5,9.5-1.2c5.5-1.4,10.7-4,15-7.7
			c2.7-2.3,5-5.1,6.8-8.1c1.3-2.1,2.6-4.2,3.3-6.6c0.7-2.1,1.8-5.1,2-7.4c0.5-5.5,0.7-10-1.9-15.2c-2.1-4.3-3.8-8.4-7-12.1
			c-5-5.8-12.2-10-19.8-11.2C41.4,2.8,38.9,2.6,36.3,2.6L36.3,2.6z M38.1,69c-0.6,0-1.2,0-1.7,0c-2-0.1-4.1-0.1-6-0.8
			c-2.6-1-5.2-1.6-7.8-2.9c-2.1-1.1-4-2.5-5.9-3.9c-6.2-4.7-10-13-10.7-20.6c-0.6-6,1.2-12.3,3.9-17.6c2.6-5.2,6.4-9.8,11.4-12.8
			c3.9-2.4,8.4-3.8,13-4.3c1-0.1,2.1-0.2,3.1-0.2c9,0,17.9,3.9,23.9,10.8c11.5,13.1,10.2,33.1-3,44.6C52.5,66.4,45.7,69,38.1,69
			L38.1,69z"/>
	</g>
</g>
<g>
	<g>
		<path class="st1" d="M41.2,55.4c0.2,0,0.2,0,0.3,0c3.5,0,7.1,0,10.6,0c1.2,0,2-0.8,2-2c0-4.5,0-8.9,0-13.4c0-0.3-0.1-0.5-0.3-0.7
			c-4.4-3.6-8.9-7.3-13.3-10.9c-1-0.8-2-1.6-3-2.4c-0.2,0.1-0.3,0.2-0.4,0.4c-5.3,4.3-10.5,8.7-15.8,13c-0.3,0.2-0.4,0.4-0.4,0.8
			c0,4.4,0,8.8,0,13.2c0,1.4,0.7,2.1,2.2,2.1c3.4,0,6.8,0,10.2,0c0.1,0,0.3,0,0.5,0c0-3.7,0-7.3,0-11c2.5,0,4.9,0,7.4,0
			C41.2,48.1,41.2,51.8,41.2,55.4z"/>
	</g>
	<g>
		<path class="st1" d="M60.7,36.5c-0.6,0.7-1.2,1.4-1.8,2.2c-0.6,0.7-1.1,0.7-1.8,0.2c-6.4-5.3-12.8-10.7-19.2-16
			c-0.1-0.1-0.3-0.2-0.5-0.4c-0.7,0.6-1.4,1.2-2.2,1.8c-5.8,4.9-11.7,9.7-17.5,14.6c-0.7,0.6-1.1,0.5-1.7-0.1
			c-0.5-0.6-1-1.1-1.4-1.7c-0.6-0.7-0.5-1.1,0.2-1.7c5.3-4.4,10.6-8.8,15.9-13.2c1.5-1.2,3-2.5,4.5-3.7c1.2-1,2.5-1.1,3.9-0.5
			c0.4,0.2,0.7,0.4,1,0.7c2.1,1.7,4.2,3.5,6.3,5.2c0.1,0.1,0.2,0.2,0.4,0.3c0-0.2,0-0.4,0-0.6c0-1.6,0-3.2,0-4.8
			c0-0.9,0.3-1.2,1.2-1.2c1.6,0,0.9,0,2.6,0c0.9,0,1.2,0.3,1.2,1.2c0,3.7,0,5.6,0,9.2c0,0,2.5,2.3,2.7,2.5c1.9,1.6,3.8,3.1,5.6,4.7
			c0.2,0.2,0.4,0.5,0.6,0.7C60.7,36.2,60.7,36.4,60.7,36.5z"/>
	</g>
</g>
</svg>
