<?xml version="1.0" encoding="utf-8"?>
<!-- Generator: Adobe Illustrator 27.4.0, SVG Export Plug-In . SVG Version: 6.00 Build 0)  -->
<svg version="1.1" id="Layer_1" xmlns="http://www.w3.org/2000/svg" xmlns:xlink="http://www.w3.org/1999/xlink" x="0px" y="0px"
	 viewBox="0 0 50 50" style="enable-background:new 0 0 50 50;" xml:space="preserve">
<style type="text/css">
	.st0{fill:#164467;}
	.st1{fill-rule:evenodd;clip-rule:evenodd;fill:#72C059;}
	.st2{fill:#72C059;}
	.st3{fill:#B4B4B4;}
	.st4{fill:#E6F0F6;}
	.st5{fill:#FFFFFF;}
</style>
<path class="st0" d="M37.8,22.9l-10.7,0V12.2c0-1.2-1-2.1-2.1-2.1c-1.2,0-2.1,1-2.1,2.1v10.7H12.2c-1.2,0-2.1,1-2.1,2.1
	c0,1.2,1,2.1,2.1,2.1h10.7v10.7c0,1.2,1,2.1,2.1,2.1c1.2,0,2.1-1,2.1-2.1V27.1h10.7c1.2,0,2.1-1,2.1-2.1
	C39.9,23.8,39,22.9,37.8,22.9L37.8,22.9z"/>
</svg>
