<?xml version="1.0" encoding="utf-8"?>
<!-- Generator: Adobe Illustrator 27.4.0, SVG Export Plug-In . SVG Version: 6.00 Build 0)  -->
<svg version="1.1" id="Layer_1" xmlns="http://www.w3.org/2000/svg" xmlns:xlink="http://www.w3.org/1999/xlink" x="0px" y="0px"
	 viewBox="0 0 75 75" style="enable-background:new 0 0 75 75;" xml:space="preserve">
<style type="text/css">
	.st0{fill:#FFFFFF;}
	.st1{fill:#72C059;}
</style>
<g>
	<g>
		<path class="st0" d="M36.9,71c-5.2,0-10.1-1.2-14.1-3.5c-7-4-12.7-9.7-15.5-15.6C5.5,48.3,4.5,44.5,4,40.7
			C3.4,35,4.8,29.9,6.3,25.6c2.3-6.7,7.3-12.8,13.8-16.7c3.4-2.1,7-3.1,10.8-4.1c0.6-0.2,1.3-0.4,1.9-0.5c1.9-0.5,3.7-0.8,5.5-0.8
			c2.8,0,5.5,0.6,9,1.6c1.6,0.4,3.7,1.6,5.4,2.5C53.2,7.8,53.6,8,54,8.2c2,1.1,3.8,2.7,5.6,4.2c2.6,2.2,4.7,4.9,6.5,7.8
			c2.8,4.6,4.4,9.9,4.8,15.4c0.2,3.7,0.2,10.6-2.7,16.1c-3.3,6.1-7.9,11.1-13.3,14.4C49.6,69.3,43.2,71,36.9,71z M37.4,4.4
			c-6,0-11.9,1.7-17.1,4.8C11.2,14.7,5.3,24.4,4.5,35.1c-0.4,4.8,0.4,9.7,2.1,14.2c2,5.3,5.8,10.1,11.1,14.1
			c5.6,4.2,11.8,6.8,17.5,7.2c0.8,0.1,1.6,0.1,2.4,0.1c8,0,15.8-2.8,20.9-7.5c1.8-1.6,3.6-3.3,5.1-5.3c1.1-1.5,2-3.1,2.8-4.7
			c0.5-0.9,0.9-1.7,1.4-2.6c1-1.7,1.4-3.6,1.8-5.4l0.2-0.8c1.9-8.4,0.6-16.5-3.9-24C59.9,10.5,49,4.4,37.4,4.4z"/>
		<path class="st1" d="M38.4,2c-1.9,0-3.8,0.2-5.9,0.8c-4.6,1.3-8.9,2.3-13.1,4.8c-6.6,4-12,10.2-14.5,17.5
			C3.1,30.3,2,35.3,2.6,40.9c0.4,4.1,1.6,8,3.4,11.7c3.3,6.9,9.6,12.5,16.1,16.3c4.5,2.5,9.7,3.7,14.9,3.7c6.6,0,13.2-1.8,18.6-5.1
			c5.9-3.6,10.6-8.8,13.9-14.9c2.7-5,3.3-11.4,2.9-17c-0.4-5.7-2.1-11.2-5-16.1c-1.8-3-4.1-5.8-6.8-8.1c-1.8-1.6-3.7-3.3-5.9-4.4
			c-2-1-4.8-2.7-6.9-3.3C44.4,2.7,41.5,2,38.4,2L38.4,2z M37.5,69.1c-0.8,0-1.5,0-2.3-0.1c-6-0.4-11.9-3.3-16.7-6.9
			c-4.6-3.5-8.5-8-10.6-13.4c-1.6-4.3-2.3-8.9-2-13.5c0.7-10.1,6.4-19.5,15.1-24.8c5.1-3.1,10.8-4.6,16.3-4.6
			c10.7,0,21.2,5.4,27.1,15.2c4.3,7.1,5.6,14.8,3.7,22.9c-0.4,1.9-0.8,4-1.8,5.7c-1.4,2.4-2.5,4.9-4.2,7.1c-1.4,1.9-3.2,3.5-4.9,5.1
			C52.2,66.8,44.6,69.1,37.5,69.1L37.5,69.1z"/>
	</g>
</g>
<g>
	<path class="st1" d="M25.2,51c0-0.4,0-0.8,0-1.3c0-0.9-0.3-1.8-0.9-2.5c-0.2-0.2-0.4-0.5-0.6-0.7c-2.4-2.8-3.5-6-3.3-9.7
		c0-0.1,0-0.2,0-0.3c-0.7-0.2-1.5-0.3-2.2-0.6c-1.8-0.8-2.7-2.3-2.8-4.3c0-0.5,0-0.9,0-1.4c0-0.7,0.5-1.2,1.2-1.2
		c0.7,0,1.2,0.5,1.2,1.2c0,0.4,0,0.8,0,1.3c0.1,1.5,1.3,2.5,2.7,2.4c0.3,0,0.3-0.1,0.4-0.4c0.6-1.9,1.6-3.6,2.9-5
		c2.7-3,6.1-4.4,10.1-4.4c2.6,0,5.2,0,7.8,0c0.5,0,1-0.2,1.3-0.6c1.2-1.3,2.7-1.9,4.5-1.9c1.1,0,2.3,0,3.4,0c1,0,1.6,0.7,1.3,1.7
		c-0.4,1.5-0.7,3.1-1.1,4.6c-0.1,0.3,0,0.5,0.2,0.7c0.6,0.9,1.2,1.7,1.9,2.6c0.1,0.1,0.3,0.3,0.4,0.3c1.8,0.1,3.4,1.3,3.6,3.2
		c0,0,0,0.1,0,0.1c0,1.5,0,3.1,0,4.6c-0.3,1.4-1.2,2.3-2.3,3c-0.9,0.6-1.6,1.3-2.2,2.3c-0.6,1-1.5,1.9-2.3,2.8
		c-0.4,0.5-0.7,1-0.7,1.6c0,0.6,0,1.3,0,1.9c0,1.6-0.3,2.1-1.7,2.7c-1.8,0-3.5,0-5.3,0c-1.2-0.4-1.6-1.2-1.6-2.4c-2.5,0-5,0-7.5,0
		c-0.1,0.3-0.1,0.6-0.2,1c-0.2,0.8-0.8,1.2-1.5,1.5c-1.8,0-3.5,0-5.3,0C25.5,53.1,25.2,52.6,25.2,51z M39.3,31.5
		c0.9,0,1.4-0.5,1.4-1.2c0-0.8-0.5-1.2-1.3-1.2c-1.8,0-3.6,0-5.4,0c-0.8,0-1.3,0.5-1.3,1.2c0,0.8,0.5,1.2,1.3,1.2c0.9,0,1.8,0,2.7,0
		C37.5,31.5,38.4,31.5,39.3,31.5z M50,34c0-0.7-0.6-1.2-1.2-1.2c-0.7,0-1.2,0.6-1.2,1.2c0,0.7,0.6,1.2,1.2,1.2
		C49.4,35.2,50,34.7,50,34z"/>
</g>
</svg>
