<?xml version="1.0" encoding="utf-8"?>
<!-- Generator: Adobe Illustrator 27.4.0, SVG Export Plug-In . SVG Version: 6.00 Build 0)  -->
<svg version="1.1" id="Layer_1" xmlns="http://www.w3.org/2000/svg" xmlns:xlink="http://www.w3.org/1999/xlink" x="0px" y="0px"
	 viewBox="0 0 50 50" style="enable-background:new 0 0 50 50;" xml:space="preserve">
<style type="text/css">
	.st0{fill:#164467;}
	.st1{fill-rule:evenodd;clip-rule:evenodd;fill:#72C059;}
	.st2{fill:#72C059;}
	.st3{fill:#B4B4B4;}
	.st4{fill:#E6F0F6;}
	.st5{fill:#FFFFFF;}
</style>
<path class="st0" d="M16,25h-3c-0.8,0-1.5-0.7-1.5-1.5c0-0.8,0.7-1.5,1.5-1.5h3c0.8,0,1.5,0.7,1.5,1.5S16.8,25,16,25z M28,23.5
	c0-0.8-0.7-1.5-1.5-1.5h-3c-0.8,0-1.5,0.7-1.5,1.5s0.7,1.5,1.5,1.5h3C27.3,25,28,24.4,28,23.5z M38.5,23.5c0-0.8-0.7-1.5-1.5-1.5h-3
	c-0.8,0-1.5,0.7-1.5,1.5S33.2,25,34,25h3C37.9,25,38.5,24.4,38.5,23.5z M17.5,31.1c0-0.8-0.7-1.5-1.5-1.5h-3c-0.8,0-1.5,0.7-1.5,1.5
	s0.7,1.5,1.5,1.5h3C16.8,32.6,17.5,31.9,17.5,31.1z M28,31.1c0-0.8-0.7-1.5-1.5-1.5h-3c-0.8,0-1.5,0.7-1.5,1.5s0.7,1.5,1.5,1.5h3
	C27.3,32.6,28,31.9,28,31.1z M38.5,31.1c0-0.8-0.7-1.5-1.5-1.5h-3c-0.8,0-1.5,0.7-1.5,1.5s0.7,1.5,1.5,1.5h3
	C37.9,32.6,38.5,31.9,38.5,31.1z M17.5,38.6c0-0.8-0.7-1.5-1.5-1.5h-3c-0.8,0-1.5,0.7-1.5,1.5c0,0.8,0.7,1.5,1.5,1.5h3
	C16.8,40.1,17.5,39.4,17.5,38.6z M28,38.6c0-0.8-0.7-1.5-1.5-1.5h-3c-0.8,0-1.5,0.7-1.5,1.5c0,0.8,0.7,1.5,1.5,1.5h3
	C27.3,40.1,28,39.4,28,38.6z M38.5,38.6c0-0.8-0.7-1.5-1.5-1.5h-3c-0.8,0-1.5,0.7-1.5,1.5c0,0.8,0.7,1.5,1.5,1.5h3
	C37.9,40.1,38.5,39.4,38.5,38.6z M41.5,7h-3V5.5C38.5,4.7,37.9,4,37,4c-0.8,0-1.5,0.7-1.5,1.5V7H14.5V5.5C14.5,4.7,13.8,4,13,4
	s-1.5,0.7-1.5,1.5V7h-3C6,7,3.9,9,3.9,11.5v30C3.9,44,6,46,8.5,46h33.1c2.5,0,4.5-2,4.5-4.5v-30C46.1,9,44,7,41.5,7z M8.5,10h3v1.7
	c0,0.8,0.7,1.5,1.5,1.5s1.5-0.7,1.5-1.5V10h21.1v1.7c0,0.8,0.7,1.5,1.5,1.5c0.8,0,1.5-0.7,1.5-1.5V10h3c0.8,0,1.5,0.7,1.5,1.5V16H7
	v-4.5C7,10.7,7.6,10,8.5,10z M41.5,43H8.5C7.6,43,7,42.3,7,41.5V19H43v22.5C43,42.3,42.4,43,41.5,43z"/>
</svg>
