<?xml version="1.0" encoding="utf-8"?>
<!-- Generator: Adobe Illustrator 27.4.0, SVG Export Plug-In . SVG Version: 6.00 Build 0)  -->
<svg version="1.1" id="Layer_1" xmlns="http://www.w3.org/2000/svg" xmlns:xlink="http://www.w3.org/1999/xlink" x="0px" y="0px"
	 viewBox="0 0 50 50" style="enable-background:new 0 0 50 50;" xml:space="preserve">
<style type="text/css">
	.st0{fill:#164467;}
	.st1{fill-rule:evenodd;clip-rule:evenodd;fill:#72C059;}
	.st2{fill:#72C059;}
	.st3{fill:#B4B4B4;}
	.st4{fill:#E6F0F6;}
	.st5{fill:#FFFFFF;}
</style>
<path class="st0" d="M15,4.7c-3.3,0-6.6,1.3-9,3.8c-4.9,5.1-4.9,13.3,0,18.4l16.8,17.5v0c0.6,0.6,1.4,0.9,2.2,0.9
	c0.8,0,1.6-0.3,2.2-0.9c5.6-5.8,11.2-11.6,16.8-17.5c4.9-5.1,4.9-13.3,0-18.4s-13.1-5.1-18,0L25,9.4l-0.9-1
	C21.6,5.9,18.3,4.7,15,4.7L15,4.7z M15,10.6c1.7,0,3.3,0.7,4.7,2.1l3.1,3.2v0c0.6,0.6,1.4,0.9,2.2,0.9s1.6-0.3,2.2-0.9l3.1-3.2
	c2.7-2.8,6.6-2.8,9.3,0c2.7,2.8,2.7,7.3,0,10C34.7,27.8,29.9,32.9,25,38L10.4,22.7c-2.7-2.8-2.7-7.3,0-10.1
	C11.7,11.3,13.4,10.6,15,10.6L15,10.6z"/>
</svg>
