<?xml version="1.0" encoding="utf-8"?>
<!-- Generator: Adobe Illustrator 27.4.0, SVG Export Plug-In . SVG Version: 6.00 Build 0)  -->
<svg version="1.1" id="Layer_1" xmlns="http://www.w3.org/2000/svg" xmlns:xlink="http://www.w3.org/1999/xlink" x="0px" y="0px"
	 viewBox="0 0 50 50" style="enable-background:new 0 0 50 50;" xml:space="preserve">
<style type="text/css">
	.st0{fill:#164467;}
	.st1{fill-rule:evenodd;clip-rule:evenodd;fill:#72C059;}
	.st2{fill:#72C059;}
	.st3{fill:#B4B4B4;}
	.st4{fill:#E6F0F6;}
	.st5{fill:#FFFFFF;}
</style>
<path class="st0" d="M34.2,12.7L25,21.9l-9.2-9.2c-0.8-0.8-2.2-0.8-3.1,0c-0.8,0.8-0.8,2.2,0,3.1l9.2,9.2l-9.2,9.2
	c-0.8,0.8-0.8,2.2,0,3.1c0.8,0.8,2.2,0.8,3.1,0l9.2-9.2l9.2,9.2c0.8,0.8,2.2,0.8,3.1,0c0.8-0.8,0.8-2.2,0-3.1L28.1,25l9.2-9.2
	c0.8-0.8,0.8-2.2,0-3.1C36.4,11.9,35,11.9,34.2,12.7L34.2,12.7z"/>
</svg>
