<?xml version="1.0" encoding="utf-8"?>
<!-- Generator: Adobe Illustrator 27.4.0, SVG Export Plug-In . SVG Version: 6.00 Build 0)  -->
<svg version="1.1" id="Layer_1" xmlns="http://www.w3.org/2000/svg" xmlns:xlink="http://www.w3.org/1999/xlink" x="0px" y="0px"
	 viewBox="0 0 50 50" style="enable-background:new 0 0 50 50;" xml:space="preserve">
<style type="text/css">
	.st0{fill:#164467;}
	.st1{fill-rule:evenodd;clip-rule:evenodd;fill:#72C059;}
	.st2{fill:#72C059;}
	.st3{fill:#B4B4B4;}
	.st4{fill:#E6F0F6;}
	.st5{fill:#FFFFFF;}
</style>
<circle class="st4" cx="25" cy="25" r="22.1"/>
<g>
	<path class="st0" d="M25.3,12.2c0.4,0.1,0.8,0.2,1.1,0.5c0.7,0.5,1,1.2,1,2c0,2.5,0,4.9,0,7.4c0,0.5,0.1,0.7,0.7,0.7
		c2.5,0,4.9,0,7.4,0c0.6,0,1.2,0.2,1.7,0.6c0.7,0.7,0.9,1.5,0.6,2.4c-0.3,0.8-1,1.4-1.9,1.5c-0.3,0-0.5,0-0.8,0c-2.4,0-4.7,0-7.1,0
		c-0.5,0-0.7,0.1-0.7,0.6c0,2.5,0,4.9,0,7.4c0,0.6-0.2,1.2-0.6,1.7c-0.6,0.7-1.5,0.9-2.4,0.7c-0.9-0.3-1.5-1-1.6-1.9
		c0-0.2,0-0.4,0-0.7c0-2.4,0-4.8,0-7.2c0-0.5-0.1-0.7-0.6-0.7c-2.5,0-4.9,0-7.4,0c-0.6,0-1.2-0.1-1.6-0.5c-0.4-0.4-0.7-0.8-0.8-1.4
		c0,0,0-0.1,0-0.1c0-0.2,0-0.3,0-0.5c0,0,0-0.1,0-0.1c0.1-0.6,0.4-1,0.8-1.4c0.5-0.4,1-0.5,1.6-0.5c2.5,0,4.9,0,7.4,0
		c0.6,0,0.7-0.1,0.7-0.7c0-2.5,0-4.9,0-7.4c0-0.8,0.3-1.5,1-2c0.3-0.2,0.7-0.3,1.1-0.5C24.9,12.2,25.1,12.2,25.3,12.2z"/>
</g>
</svg>
