<?xml version="1.0" encoding="utf-8"?>
<!-- Generator: Adobe Illustrator 27.4.0, SVG Export Plug-In . SVG Version: 6.00 Build 0)  -->
<svg version="1.1" id="Layer_1" xmlns="http://www.w3.org/2000/svg" xmlns:xlink="http://www.w3.org/1999/xlink" x="0px" y="0px"
	 viewBox="0 0 50 50" style="enable-background:new 0 0 50 50;" xml:space="preserve">
<style type="text/css">
	.st0{fill:#164467;}
	.st1{fill-rule:evenodd;clip-rule:evenodd;fill:#72C059;}
	.st2{fill:#72C059;}
	.st3{fill:#B4B4B4;}
	.st4{fill:#E6F0F6;}
	.st5{fill:#FFFFFF;}
</style>
<g>
	<path class="st0" d="M42.9,42.8c0-0.1,0-0.2,0-0.2c0-4.6,0-9.2,0-13.8c0-1.7-0.2-3.3-0.7-5c-0.6-2.1-1.8-3.8-4-4.7
		c-1.6-0.7-3.3-0.8-5-0.7c-1.8,0.1-3.5,0.7-4.8,1.9c-0.6,0.5-1.1,1.2-1.6,1.8c0-1,0-2.1,0-3.2c-2.4,0-4.8,0-7.1,0c0,8,0,15.9,0,23.8
		c2.5,0,4.9,0,7.4,0c0-0.2,0-0.4,0-0.5c0-3.7,0-7.5,0-11.2c0-0.8,0.1-1.7,0.2-2.5c0.3-2.2,1.5-3.5,3.5-3.7c2.3-0.3,3.9,0.6,4.4,3
		c0.1,0.8,0.2,1.6,0.2,2.5c0,3.9,0,7.9,0,11.8c0,0.2,0,0.3,0,0.5C38,42.8,40.4,42.8,42.9,42.8z M7.7,19c0,8,0,15.9,0,23.8
		c2.5,0,4.9,0,7.4,0c0-8,0-15.9,0-23.8C12.6,19,10.2,19,7.7,19z M15.7,11.5c0-2.3-1.8-4.3-4.2-4.3C9.1,7.1,7.1,9,7.1,11.3
		c0,2.4,1.9,4.4,4.2,4.4C13.7,15.8,15.6,13.9,15.7,11.5z"/>
	<path class="st0" d="M42.9,42.8c-2.5,0-4.9,0-7.4,0c0-0.2,0-0.4,0-0.5c0-3.9,0-7.9,0-11.8c0-0.8-0.1-1.7-0.2-2.5
		c-0.5-2.5-2.1-3.3-4.4-3c-2.1,0.3-3.2,1.5-3.5,3.7c-0.1,0.8-0.2,1.7-0.2,2.5c0,3.7,0,7.5,0,11.2c0,0.2,0,0.3,0,0.5
		c-2.5,0-4.9,0-7.4,0c0-7.9,0-15.9,0-23.8c2.3,0,4.7,0,7.1,0c0,1.1,0,2.1,0,3.2c0.6-0.6,1-1.3,1.6-1.8c1.4-1.2,3-1.8,4.8-1.9
		c1.7-0.1,3.4,0,5,0.7c2.1,0.9,3.3,2.5,4,4.7c0.5,1.6,0.7,3.3,0.7,5c0,4.6,0,9.2,0,13.8C42.9,42.7,42.9,42.7,42.9,42.8z"/>
	<path class="st0" d="M7.7,19c2.5,0,4.9,0,7.4,0c0,8,0,15.9,0,23.8c-2.5,0-4.9,0-7.4,0C7.7,35,7.7,27,7.7,19z"/>
	<path class="st0" d="M15.7,11.5c0,2.4-2,4.3-4.4,4.3c-2.3,0-4.3-2-4.2-4.4c0-2.4,2-4.3,4.4-4.2C13.8,7.2,15.7,9.1,15.7,11.5z"/>
</g>
</svg>
