<?xml version="1.0" encoding="utf-8"?>
<!-- Generator: Adobe Illustrator 27.4.0, SVG Export Plug-In . SVG Version: 6.00 Build 0)  -->
<svg version="1.1" id="Layer_1" xmlns="http://www.w3.org/2000/svg" xmlns:xlink="http://www.w3.org/1999/xlink" x="0px" y="0px"
	 viewBox="0 0 50 50" style="enable-background:new 0 0 50 50;" xml:space="preserve">
<style type="text/css">
	.st0{fill:#164467;}
	.st1{fill-rule:evenodd;clip-rule:evenodd;fill:#72C059;}
	.st2{fill:#72C059;}
	.st3{fill:#B4B4B4;}
	.st4{fill:#E6F0F6;}
	.st5{fill:#FFFFFF;}
</style>
<g>
	<path class="st0" d="M35.8,3.5l-5.6,0c-6.3,0-10.3,4.2-10.3,10.6V19h-5.6c-0.5,0-0.9,0.4-0.9,0.9v7.1c0,0.5,0.4,0.9,0.9,0.9h5.6
		v17.9c0,0.5,0.4,0.9,0.9,0.9h7.3c0.5,0,0.9-0.4,0.9-0.9V27.8h6.6c0.5,0,0.9-0.4,0.9-0.9l0-7.1c0-0.2-0.1-0.5-0.3-0.6
		S35.7,19,35.5,19h-6.6v-4.1c0-2,0.5-3,3.1-3l3.8,0c0.5,0,0.9-0.4,0.9-0.9V4.4C36.6,3.9,36.2,3.5,35.8,3.5z"/>
</g>
</svg>
