<?xml version="1.0" encoding="utf-8"?>
<!-- Generator: Adobe Illustrator 27.4.0, SVG Export Plug-In . SVG Version: 6.00 Build 0)  -->
<svg version="1.1" id="Layer_1" xmlns="http://www.w3.org/2000/svg" xmlns:xlink="http://www.w3.org/1999/xlink" x="0px" y="0px"
	 viewBox="0 0 145.8 63.5" style="enable-background:new 0 0 145.8 63.5;" xml:space="preserve">
<style type="text/css">
	.st0{fill:#FFFFFF;}
	.st1{fill:#286EA0;}
	.st2{fill:#54AC36;}
	.st3{fill:#296EA1;}
	.st4{fill:#54AB36;}
</style>
<g>
	<path class="st1" d="M42.1,45.3V36c0-1.3-0.1-2.3-0.3-2.8c-0.2-0.5-0.6-0.8-1.2-0.8c-0.5,0-0.9,0.2-1.3,0.5
		c-0.3,0.3-0.6,0.7-0.7,1.2v11.2h-3.8v-16h2.9l0.5,1.9h0.1c0.4-0.7,0.9-1.2,1.5-1.6c0.6-0.4,1.4-0.7,2.4-0.7c0.8,0,1.5,0.2,2,0.5
		c0.5,0.4,0.9,1,1.2,1.9c0.4-0.8,0.9-1.4,1.6-1.8c0.7-0.4,1.4-0.7,2.3-0.7c0.7,0,1.3,0.1,1.8,0.3c0.5,0.2,0.9,0.5,1.2,0.9
		c0.3,0.4,0.5,1.1,0.7,1.8c0.1,0.8,0.2,1.8,0.2,3v10.3h-3.8v-9.7c0-1.1-0.1-1.9-0.3-2.4c-0.2-0.5-0.6-0.8-1.3-0.8
		c-0.5,0-1,0.2-1.3,0.5c-0.3,0.3-0.6,0.7-0.7,1.3v11.1H42.1z"/>
	<path class="st1" d="M66.3,44.1c-0.5,0.5-1.3,0.9-2.2,1.1c-0.9,0.3-1.9,0.4-2.9,0.4c-0.4,0-2.1-0.2-2.9-0.6c-0.8-0.4-1.5-0.9-2-1.7
		s-0.9-1.6-1.1-2.6c-0.2-1-0.4-2.2-0.4-3.5c0-2.9,0.6-5,1.7-6.4c1.1-1.4,2.7-2.1,4.7-2.1c0.7,0,1.3,0.1,2,0.3c0.6,0.2,1.2,0.5,1.7,1
		c0.5,0.5,0.9,1.1,1.2,1.9c0.3,0.8,0.5,1.8,0.5,3c0,0.5,0,1-0.1,1.5c-0.1,0.5-0.1,1.1-0.2,1.7h-7.8c0,1.3,0.3,2.3,0.8,3
		c0.5,0.7,1.3,1.1,2.5,1.1c0.7,0,1.3-0.1,1.9-0.3c0.6-0.2,1-0.4,1.3-0.7L66.3,44.1z M61.3,32.2c-0.8,0-1.4,0.3-1.8,1
		c-0.4,0.6-0.6,1.6-0.7,2.7h4.5c0.1-1.2-0.1-2.1-0.4-2.8C62.5,32.5,62,32.2,61.3,32.2"/>
	<path class="st1" d="M69.9,42.7c0.4,0.3,0.9,0.5,1.5,0.7c0.6,0.2,1.2,0.3,1.8,0.3c0.7,0,1.3-0.2,1.8-0.5c0.5-0.4,0.7-0.9,0.7-1.7
		c0-0.7-0.1-1.2-0.4-1.6c-0.3-0.4-0.7-0.8-1.1-1.2c-0.5-0.3-1-0.7-1.5-0.9c-0.5-0.3-1-0.6-1.5-1c-0.5-0.4-0.8-0.9-1.1-1.4
		c-0.3-0.6-0.4-1.2-0.4-2.1c0-1.4,0.4-2.4,1.1-3.1c0.7-0.7,1.8-1,3.1-1c0.9,0,1.6,0.1,2.3,0.2c0.6,0.2,1.2,0.4,1.7,0.7l-0.6,1.9
		c-0.4-0.2-0.9-0.4-1.4-0.5c-0.5-0.1-1.1-0.2-1.6-0.2c-0.8,0-1.3,0.2-1.7,0.5c-0.4,0.3-0.5,0.8-0.5,1.5c0,0.5,0.1,1,0.4,1.4
		c0.3,0.4,0.7,0.7,1.1,1c0.5,0.3,0.9,0.6,1.5,0.9c0.5,0.3,1,0.7,1.5,1.1c0.5,0.4,0.8,1,1.1,1.6c0.3,0.6,0.4,1.4,0.4,2.3
		c0,0.6-0.1,1.2-0.3,1.7c-0.2,0.5-0.5,1-0.9,1.4c-0.4,0.4-0.9,0.7-1.5,0.9c-0.6,0.2-1.3,0.4-2.1,0.4c-0.9,0-1.7-0.1-2.4-0.3
		c-0.7-0.2-1.3-0.4-1.7-0.7L69.9,42.7z"/>
	<path class="st1" d="M79.3,29.3h1.9v-4h2.3v4H87v2.1h-3.4v9.5c0,0.9,0.1,1.6,0.3,2c0.2,0.4,0.6,0.6,1.1,0.6c0.4,0,0.8,0,1.1-0.1
		c0.3-0.1,0.6-0.2,1-0.4l0.4,1.8c-0.5,0.2-1,0.4-1.5,0.6c-0.6,0.1-1.2,0.2-1.8,0.2c-1.1,0-1.8-0.3-2.3-1c-0.5-0.7-0.7-1.8-0.7-3.4
		v-9.8h-1.9V29.3z"/>
	<path class="st1" d="M89.7,29.3h1.6l0.4,1.7h0.1c0.3-0.6,0.7-1.1,1.2-1.5c0.5-0.3,1.1-0.5,1.7-0.5c0.5,0,1,0.1,1.7,0.3l-0.4,2.3
		c-0.6-0.2-1-0.3-1.5-0.3c-0.7,0-1.2,0.2-1.7,0.6c-0.4,0.4-0.7,0.9-0.8,1.6v11.7h-2.3V29.3z"/>
	<path class="st1" d="M107.2,44.2c-0.5,0.5-1.2,0.8-1.9,1.1c-0.8,0.3-1.6,0.4-2.5,0.4c-1,0-1.9-0.2-2.6-0.6c-0.7-0.4-1.3-1-1.8-1.7
		c-0.5-0.7-0.8-1.6-1.1-2.6c-0.2-1-0.3-2.2-0.3-3.4c0-2.7,0.5-4.8,1.5-6.2c1-1.4,2.4-2.1,4.2-2.1c0.6,0,1.2,0.1,1.8,0.2
		c0.6,0.1,1.1,0.4,1.6,0.9c0.5,0.4,0.8,1.1,1.1,1.9c0.3,0.8,0.4,1.9,0.4,3.2c0,0.4,0,0.7,0,1.2c0,0.4-0.1,0.8-0.1,1.3h-8.1
		c0,0.9,0.1,1.7,0.2,2.5c0.1,0.7,0.4,1.4,0.7,1.9c0.3,0.5,0.7,0.9,1.2,1.2c0.5,0.3,1.1,0.4,1.9,0.4c0.6,0,1.1-0.1,1.7-0.3
		c0.6-0.2,1-0.5,1.3-0.8L107.2,44.2z M105.4,35.6c0-1.6-0.2-2.8-0.7-3.5c-0.5-0.7-1.2-1.1-2-1.1c-1,0-1.8,0.4-2.3,1.1
		c-0.6,0.7-0.9,1.9-1,3.5H105.4z"/>
	<path class="st1" d="M109.3,29.3h1.9v-4h2.3v4h3.4v2.1h-3.4v9.5c0,0.9,0.1,1.6,0.3,2c0.2,0.4,0.6,0.6,1.1,0.6c0.4,0,0.8,0,1.1-0.1
		c0.3-0.1,0.6-0.2,1-0.4l0.4,1.8c-0.5,0.2-1,0.4-1.5,0.6c-0.6,0.1-1.2,0.2-1.8,0.2c-1.1,0-1.8-0.3-2.3-1c-0.5-0.7-0.7-1.8-0.7-3.4
		v-9.8h-1.9V29.3z"/>
	<path class="st1" d="M128.2,44.5c-0.5,0.4-1.1,0.7-1.8,0.9c-0.7,0.2-1.4,0.3-2.1,0.3c-1,0-1.9-0.2-2.6-0.6c-0.7-0.4-1.3-1-1.7-1.7
		c-0.4-0.7-0.8-1.6-1-2.6c-0.2-1-0.3-2.2-0.3-3.4c0-2.7,0.5-4.8,1.4-6.2c1-1.4,2.4-2.1,4.2-2.1c0.8,0,1.5,0.1,2.1,0.2
		c0.6,0.1,1.1,0.3,1.5,0.6l-0.6,2c-0.9-0.5-1.8-0.7-2.8-0.7c-1.1,0-2,0.5-2.6,1.5c-0.6,1-0.9,2.6-0.9,4.8c0,0.9,0.1,1.7,0.2,2.5
		c0.1,0.8,0.3,1.4,0.6,2c0.3,0.6,0.7,1,1.1,1.3c0.5,0.3,1.1,0.5,1.8,0.5c0.6,0,1.1-0.1,1.5-0.3c0.5-0.2,0.9-0.4,1.2-0.7L128.2,44.5z
		"/>
	<path class="st1" d="M138.9,45.3v-9.7c0-1.5-0.2-2.6-0.5-3.4c-0.4-0.8-1-1.2-2.1-1.2c-0.7,0-1.4,0.3-2,0.8c-0.6,0.5-1,1.2-1.2,2
		v11.4h-2.3v-20h2.3v5.5h0.1c0.4-0.6,1-1,1.6-1.4c0.6-0.4,1.4-0.5,2.3-0.5c0.7,0,1.3,0.1,1.8,0.3c0.5,0.2,1,0.5,1.3,1
		c0.3,0.5,0.6,1.1,0.8,1.9c0.2,0.8,0.3,1.7,0.3,2.9v10.3H138.9z"/>
	<path class="st2" d="M9.6,20C5,21,3.3,19.8,8.2,18.7L68.8,4.9c0.3-0.1,2.1-0.4,2.7-0.4c0.6,0,2.6,0.3,2.8,0.4l32.6,7.3V8.4
		c0-1-0.1-1.9,1.9-1.9h8c2.1,0,1.9,0.8,1.9,1.9v6.3c0,0,16.3,3.5,18.9,4c5.3,1.1,5,3-2.8,1.3c-0.7-0.1-17.4-2.9-17.4-2.9
		c-1-0.3-1.2-1-1.2-2V9h-6.8v4.1c0,0.5,0,1.4-0.4,1.7c-0.4,0.3-1.2,0.4-1.7,0.3l-33-6.1c-0.3-0.1-2-0.4-2.8-0.4
		c-0.9,0-2.2,0.3-2.7,0.4C68.8,9.1,11.5,19.7,9.6,20"/>
	<polygon class="st1" points="13.3,45.3 13.3,36.7 8.7,36.7 8.7,45.3 5.2,45.3 5.2,25.5 8.7,25.5 8.7,33.2 13.3,33.2 13.3,25.5 
		16.8,25.5 16.8,45.3 	"/>
	<path class="st1" d="M30.9,30c-3.3-2-5.1,1.2-5.1,1.2S24.1,28,20.8,30c-1.7,1-3.2,4.2-1.8,6.9c2.9,5.6,6.9,8.5,6.9,8.5
		s4-2.9,6.9-8.5C34.1,34.1,32.6,31,30.9,30 M29.2,36.9c-0.6,0.9-3.3,4.3-3.3,4.3l0,0c0,0-2.8-3.3-3.3-4.3c-0.6-1-0.8-2.7,0.1-3.3
		c1.9-1.3,3,0.7,3.2,1h0c0.2-0.3,1.3-2.3,3.2-1C30,34.2,29.8,35.9,29.2,36.9"/>
	<polygon class="st2" points="4.9,58.5 5.8,53.2 9.1,53.2 9,54.2 6.7,54.2 6.5,55.3 8.2,55.3 8.1,56.2 6.3,56.2 6.1,57.6 8.4,57.6 
		8.3,58.5 	"/>
	<path class="st2" d="M14,58.5c0.4-2.2,0.4-2.3,0.4-2.5c0-0.5-0.2-0.6-0.5-0.6c-0.6,0-0.8,0.4-0.8,0.7l-0.4,2.3h-0.9
		c0.4-2.1,0.4-2.3,0.4-2.5c0-0.4-0.3-0.5-0.6-0.5c-0.3,0-0.5,0.1-0.7,0.3l-0.5,2.8H9.4l0.7-3.8h0.8V55c0.2-0.2,0.6-0.4,1-0.4
		c0.4,0,0.8,0.2,1,0.6c0.2-0.2,0.6-0.6,1.3-0.6c0.8,0,1.2,0.5,1.2,1.3c0,0.2,0,0.4-0.4,2.6H14z"/>
	<path class="st2" d="M17.2,58.4l-0.4,2h-0.9l1-5.6h0.8l0,0.2c0.3-0.2,0.5-0.3,0.9-0.3c1,0,1.5,0.7,1.5,1.6c0,1.2-0.8,2.3-2.2,2.3
		C17.6,58.6,17.4,58.5,17.2,58.4 M17.4,57c0,0.5,0.2,0.9,0.6,0.9c0.7,0,1.1-0.7,1.1-1.5c0-0.6-0.2-0.9-0.7-0.9
		C17.6,55.5,17.4,56.4,17.4,57"/>
	<path class="st2" d="M21,57c0-1.2,0.9-2.3,2.2-2.3c1.1,0,1.6,0.7,1.6,1.6c0,1.2-0.9,2.3-2.2,2.3C21.5,58.6,21,57.9,21,57
		 M21.9,56.9c0,0.6,0.2,0.9,0.7,0.9c0.7,0,1.1-0.7,1.1-1.5c0-0.6-0.3-0.9-0.7-0.9C22.4,55.5,21.9,56.1,21.9,56.9"/>
	<polygon class="st2" points="29.2,58.5 28.4,58.5 28.1,56.1 26.9,58.5 26.1,58.5 25.8,54.8 26.6,54.8 26.8,57.4 27.9,54.8 
		28.7,54.8 28.9,57.4 30,54.8 30.9,54.8 	"/>
	<path class="st2" d="M32.8,57c-0.2,0-0.5,0-0.6,0c0,0.6,0.5,0.9,0.9,0.9c0.3,0,0.9-0.1,1.2-0.3l-0.1,0.8c-0.3,0.2-0.8,0.3-1.3,0.3
		c-1.2,0-1.7-0.7-1.7-1.6c0-1.2,0.8-2.3,2.1-2.3c0.8,0,1.2,0.4,1.2,1.1C34.6,56.7,33.8,57,32.8,57 M32.3,56.4c0.1,0,0.2,0,0.3,0
		c0.9,0,1.2-0.3,1.2-0.6c0-0.3-0.3-0.4-0.5-0.4C32.8,55.5,32.4,56,32.3,56.4"/>
	<path class="st2" d="M37.8,55.6h-0.4c-0.3,0-0.6,0.2-0.7,0.4l-0.5,2.6h-0.9l0.7-3.8h0.9l-0.1,0.4c0.2-0.2,0.6-0.5,1-0.5h0.3
		L37.8,55.6z"/>
	<path class="st2" d="M38.4,58.5l0.7-3.8H40l-0.7,3.8H38.4z M39.1,54.2l0.2-0.9h0.9l-0.2,0.9H39.1z"/>
	<path class="st2" d="M42.9,58.5c0.4-2.2,0.4-2.3,0.4-2.4c0-0.4-0.2-0.6-0.5-0.6c-0.3,0-0.5,0.1-0.7,0.3l-0.5,2.7h-0.9l0.7-3.8h0.8
		l0,0.2c0.2-0.2,0.5-0.3,0.9-0.3c0.8,0,1.2,0.5,1.2,1.3c0,0.2,0,0.3-0.4,2.6H42.9z"/>
	<path class="st2" d="M44.7,59.4c0-0.4,0.3-0.7,0.8-1c-0.1-0.1-0.2-0.3-0.2-0.5c0-0.3,0.2-0.5,0.5-0.6c-0.2-0.2-0.4-0.6-0.4-1
		c0-0.9,0.7-1.7,1.8-1.7c0.3,0,0.6,0.1,0.8,0.2c0.1-0.1,0.5-0.2,0.8-0.2h0.3l-0.2,0.6h-0.4c0,0-0.1,0-0.2,0c0.1,0.1,0.1,0.4,0.1,0.6
		c0,0.9-0.7,1.8-1.8,1.8c-0.1,0-0.2,0-0.4,0c-0.1,0-0.1,0.1-0.1,0.1c0,0.2,0.3,0.2,0.8,0.3c0.5,0.1,1.3,0.2,1.3,1
		c0,0.8-0.7,1.4-2,1.4C45.2,60.4,44.7,59.9,44.7,59.4 M46.1,58.7c-0.3,0.1-0.6,0.3-0.6,0.6c0,0.3,0.3,0.5,0.8,0.5
		c0.6,0,1.1-0.2,1.1-0.5C47.4,58.8,46.5,58.8,46.1,58.7 M46.2,56.4c0,0.4,0.2,0.6,0.5,0.6c0.5,0,0.8-0.5,0.8-1
		c0-0.4-0.2-0.6-0.5-0.6C46.5,55.4,46.2,55.8,46.2,56.4"/>
	<polygon class="st2" points="53.3,54.2 53.1,55.3 54.8,55.3 54.6,56.2 52.9,56.2 52.5,58.5 51.6,58.5 52.5,53.2 55.6,53.2 
		55.5,54.2 	"/>
	<path class="st2" d="M59.2,57.3c0,0.1,0,0.2,0,0.3c0,0.2,0.1,0.2,0.4,0.2l-0.2,0.8c-0.8,0-0.9-0.1-1.1-0.4
		c-0.2,0.2-0.6,0.4-1.1,0.4c-0.9,0-1.4-0.7-1.4-1.6c0-1.2,0.8-2.3,2.2-2.3c0.4,0,0.6,0.1,0.8,0.2l0.1-0.2h0.9L59.2,57.3z M56.6,56.9
		c0,0.6,0.2,0.9,0.7,0.9c0.8,0,1-0.9,1-1.5c0-0.5-0.2-0.9-0.6-0.9C57.1,55.5,56.6,56.1,56.6,56.9"/>
	<path class="st2" d="M65,58.5c0.4-2.2,0.4-2.3,0.4-2.5c0-0.5-0.2-0.6-0.5-0.6c-0.6,0-0.8,0.4-0.8,0.7l-0.4,2.3h-0.9
		c0.4-2.1,0.4-2.3,0.4-2.5c0-0.4-0.3-0.5-0.6-0.5s-0.5,0.1-0.7,0.3l-0.5,2.8h-0.9l0.7-3.8h0.8V55c0.2-0.2,0.6-0.4,1-0.4
		c0.4,0,0.8,0.2,1,0.6c0.2-0.2,0.6-0.6,1.3-0.6c0.8,0,1.2,0.5,1.2,1.3c0,0.2,0,0.4-0.4,2.6H65z"/>
	<path class="st2" d="M67.2,58.5l0.7-3.8h0.9l-0.7,3.8H67.2z M68,54.2l0.2-0.9h0.9l-0.2,0.9H68z"/>
	<path class="st2" d="M70.8,58.6h-0.3c-0.5,0-0.8-0.3-0.8-0.7c0-0.1,0-0.2,0.9-5h0.9c-0.8,4.5-0.8,4.7-0.8,4.7
		c0,0.2,0.1,0.2,0.4,0.2L70.8,58.6z"/>
	<path class="st2" d="M72,58.5l0.7-3.8h0.9l-0.7,3.8H72z M72.7,54.2l0.2-0.9h0.9l-0.2,0.9H72.7z"/>
	<path class="st2" d="M75.9,57c-0.2,0-0.5,0-0.6,0c0,0.6,0.5,0.9,0.9,0.9c0.3,0,0.9-0.1,1.2-0.3l-0.1,0.8c-0.3,0.2-0.8,0.3-1.3,0.3
		c-1.2,0-1.7-0.7-1.7-1.6c0-1.2,0.8-2.3,2.1-2.3c0.8,0,1.2,0.4,1.2,1.1C77.7,56.7,76.8,57,75.9,57 M75.4,56.4c0.1,0,0.2,0,0.3,0
		c0.9,0,1.2-0.3,1.2-0.6c0-0.3-0.3-0.4-0.5-0.4C75.8,55.5,75.5,56,75.4,56.4"/>
	<path class="st2" d="M78.3,58.3l0.2-0.8c0.2,0.2,0.7,0.4,1.1,0.4c0.5,0,0.6-0.3,0.6-0.5c0-0.3-0.3-0.4-0.6-0.5
		c-0.4-0.1-0.9-0.3-0.9-0.9c0-0.5,0.4-1.4,1.6-1.4c0.5,0,1,0.1,1.1,0.3l-0.2,0.8c-0.1-0.2-0.6-0.4-1-0.4c-0.3,0-0.7,0.1-0.7,0.5
		c0,0.3,0.4,0.4,0.7,0.5c0.5,0.1,0.8,0.3,0.8,1c0,0.7-0.4,1.3-1.6,1.3C78.9,58.6,78.4,58.5,78.3,58.3"/>
	<path class="st2" d="M86,58.6h-0.7c-0.6,0-0.8-0.4-0.8-0.8c0-0.1,0-0.2,0.4-2.3h-0.5l0.2-0.8H85l0.1-0.8l1-0.1L86,54.8h0.8
		l-0.1,0.8h-0.8c-0.3,1.9-0.3,2-0.3,2.1c0,0.2,0.1,0.2,0.5,0.2h0.3L86,58.6z"/>
	<path class="st2" d="M87.3,57c0-1.2,0.9-2.3,2.2-2.3c1.1,0,1.6,0.7,1.6,1.6c0,1.2-0.9,2.3-2.2,2.3C87.8,58.6,87.3,57.9,87.3,57
		 M88.2,56.9c0,0.6,0.2,0.9,0.7,0.9c0.7,0,1.1-0.7,1.1-1.5c0-0.6-0.3-0.9-0.7-0.9C88.7,55.5,88.2,56.1,88.2,56.9"/>
	<path class="st2" d="M97,58.5l-0.7-2h-0.9l-0.3,2h-1l0.9-5.3h1.9c0.9,0,1.5,0.3,1.5,1.3c0,0.9-0.6,1.4-1.2,1.8l0.8,2.2H97z
		 M95.8,54l-0.3,1.6h0.6c0.9,0,1.2-0.3,1.2-1c0-0.4-0.1-0.6-0.9-0.6H95.8z"/>
	<path class="st2" d="M100.5,57c-0.2,0-0.5,0-0.6,0c0,0.6,0.5,0.9,0.9,0.9c0.3,0,0.9-0.1,1.2-0.3l-0.1,0.8c-0.3,0.2-0.8,0.3-1.3,0.3
		c-1.2,0-1.7-0.7-1.7-1.6c0-1.2,0.8-2.3,2.1-2.3c0.8,0,1.2,0.4,1.2,1.1C102.4,56.7,101.5,57,100.5,57 M100,56.4c0.1,0,0.2,0,0.3,0
		c0.9,0,1.2-0.3,1.2-0.6c0-0.3-0.3-0.4-0.5-0.4C100.5,55.5,100.1,56,100,56.4"/>
	<path class="st2" d="M104,58.3l0,0.2h-0.9l1-5.7h0.9l-0.4,2.1c0.2-0.2,0.5-0.2,0.8-0.2c1,0,1.5,0.7,1.5,1.6c0,1.2-0.8,2.3-2.2,2.3
		C104.4,58.6,104.2,58.5,104,58.3 M104.2,57c0,0.5,0.2,0.9,0.6,0.9c0.7,0,1.1-0.7,1.1-1.4c0-0.6-0.2-0.9-0.7-0.9
		C104.5,55.5,104.2,56.3,104.2,57"/>
	<path class="st2" d="M110.1,58.5l0-0.2c-0.3,0.2-0.5,0.3-0.9,0.3c-0.8,0-1.2-0.5-1.2-1.3c0-0.1,0-0.3,0.4-2.6h0.9
		c-0.4,2.2-0.4,2.4-0.4,2.4c0,0.4,0.2,0.6,0.6,0.6c0.3,0,0.5-0.1,0.7-0.3l0.5-2.8h0.9l-0.7,3.8H110.1z"/>
	<path class="st2" d="M112.3,58.5l0.7-3.8h0.9l-0.7,3.8H112.3z M113.1,54.2l0.2-0.9h0.9l-0.2,0.9H113.1z"/>
	<path class="st2" d="M115.8,58.6h-0.3c-0.5,0-0.8-0.3-0.8-0.7c0-0.1,0-0.2,0.9-5h0.9c-0.8,4.5-0.8,4.7-0.8,4.7
		c0,0.2,0.1,0.2,0.4,0.2L115.8,58.6z"/>
	<path class="st2" d="M119.4,58.5l0-0.2c-0.3,0.2-0.5,0.3-0.9,0.3c-1,0-1.5-0.7-1.5-1.6c0-1.2,0.8-2.3,2.2-2.3
		c0.4,0,0.6,0.1,0.8,0.2l0.4-2.1h0.9l-1,5.7H119.4z M118,56.9c0,0.6,0.2,0.9,0.7,0.9c0.8,0,1-0.9,1-1.5c0-0.5-0.2-0.9-0.6-0.9
		C118.5,55.5,118,56.1,118,56.9"/>
	<polygon class="st2" points="124,58.5 124.9,53.2 125.9,53.2 125.1,57.6 127.2,57.6 127,58.5 	"/>
	<path class="st2" d="M128,58.5l0.7-3.8h0.9l-0.7,3.8H128z M128.8,54.2l0.2-0.9h0.9l-0.2,0.9H128.8z"/>
	<polygon class="st2" points="132,58.5 131.2,58.5 130.5,54.8 131.4,54.8 131.8,57.4 133.2,54.8 134.1,54.8 	"/>
	<path class="st2" d="M136,57c-0.2,0-0.5,0-0.6,0c0,0.6,0.5,0.9,0.9,0.9c0.3,0,0.9-0.1,1.2-0.3l-0.1,0.8c-0.3,0.2-0.8,0.3-1.3,0.3
		c-1.2,0-1.7-0.7-1.7-1.6c0-1.2,0.8-2.3,2.1-2.3c0.8,0,1.2,0.4,1.2,1.1C137.8,56.7,136.9,57,136,57 M135.5,56.4c0.1,0,0.2,0,0.3,0
		c0.9,0,1.2-0.3,1.2-0.6c0-0.3-0.3-0.4-0.5-0.4C135.9,55.5,135.6,56,135.5,56.4"/>
	<path class="st2" d="M138.3,58.3l0.2-0.8c0.2,0.2,0.7,0.4,1.1,0.4c0.5,0,0.6-0.3,0.6-0.5c0-0.3-0.3-0.4-0.6-0.5
		c-0.4-0.1-0.9-0.3-0.9-0.9c0-0.5,0.4-1.4,1.5-1.4c0.5,0,1,0.1,1.1,0.3l-0.2,0.8c-0.1-0.2-0.6-0.4-1-0.4c-0.3,0-0.7,0.1-0.7,0.5
		c0,0.3,0.4,0.4,0.7,0.5c0.5,0.1,0.8,0.3,0.8,1c0,0.7-0.4,1.3-1.6,1.3C139,58.6,138.5,58.5,138.3,58.3"/>
</g>
</svg>
