<?xml version="1.0" encoding="utf-8"?>
<!-- Generator: Adobe Illustrator 27.4.0, SVG Export Plug-In . SVG Version: 6.00 Build 0)  -->
<svg version="1.1" id="Layer_1" xmlns="http://www.w3.org/2000/svg" xmlns:xlink="http://www.w3.org/1999/xlink" x="0px" y="0px"
	 viewBox="0 0 87.4 77" style="enable-background:new 0 0 87.4 77;" xml:space="preserve">
<style type="text/css">
	.st0{fill:#FFFFFF;}
	.st1{fill:#286EA0;}
	.st2{fill:#54AC36;}
	.st3{fill:#296EA1;}
	.st4{fill:#54AB36;}
</style>
<g>
	<path class="st0" d="M51.8,45.3V33.4c0-1.7-0.1-2.9-0.4-3.6c-0.3-0.7-0.8-1-1.6-1c-0.6,0-1.2,0.2-1.6,0.6c-0.4,0.4-0.7,0.9-1,1.5
		v14.2h-4.8V24.9h3.7l0.6,2.4h0.1c0.5-0.8,1.2-1.5,1.9-2.1c0.8-0.6,1.8-0.8,3.1-0.8c1.1,0,1.9,0.2,2.6,0.7c0.7,0.5,1.2,1.3,1.6,2.4
		c0.5-1,1.2-1.7,2-2.3c0.8-0.6,1.8-0.8,3-0.8c0.9,0,1.7,0.1,2.3,0.3c0.6,0.2,1.2,0.6,1.5,1.2c0.4,0.6,0.7,1.3,0.9,2.3
		c0.2,1,0.3,2.2,0.3,3.8v13.2h-4.8V32.9c0-1.4-0.1-2.4-0.4-3.1c-0.2-0.7-0.8-1-1.6-1c-0.7,0-1.2,0.2-1.6,0.6
		c-0.4,0.4-0.7,0.9-0.9,1.6v14.2H51.8z"/>
	<path class="st0" d="M82.6,43.8c-0.7,0.6-1.6,1.1-2.8,1.5c-1.2,0.4-2.4,0.6-3.7,0.6c-0.5,0-2.6-0.2-3.6-0.7c-1-0.5-1.8-1.2-2.5-2.1
		c-0.7-0.9-1.1-2-1.4-3.4c-0.3-1.3-0.5-2.8-0.5-4.5c0-3.7,0.7-6.4,2.2-8.1c1.5-1.7,3.5-2.6,6-2.6c0.9,0,1.7,0.1,2.5,0.4
		c0.8,0.3,1.5,0.7,2.2,1.3c0.6,0.6,1.2,1.4,1.5,2.4c0.4,1,0.6,2.3,0.6,3.8c0,0.6,0,1.2-0.1,1.9c-0.1,0.7-0.2,1.4-0.3,2.2h-10
		c0.1,1.7,0.4,3,1.1,3.9c0.7,0.9,1.7,1.3,3.2,1.3c0.9,0,1.7-0.1,2.4-0.4c0.7-0.3,1.3-0.6,1.7-0.9L82.6,43.8z M76.3,28.5
		c-1,0-1.8,0.4-2.4,1.2c-0.5,0.8-0.8,2-0.9,3.5h5.7c0.1-1.5-0.1-2.7-0.5-3.5C77.8,28.9,77.1,28.5,76.3,28.5"/>
	<path class="st0" d="M4.1,69.5c0.5,0.3,1,0.5,1.7,0.7c0.6,0.2,1.3,0.3,2,0.3c0.8,0,1.4-0.2,2-0.6c0.5-0.4,0.8-1,0.8-1.9
		c0-0.7-0.2-1.3-0.5-1.8c-0.3-0.5-0.7-0.9-1.3-1.3c-0.5-0.4-1.1-0.7-1.6-1c-0.6-0.3-1.1-0.7-1.6-1.1c-0.5-0.4-0.9-1-1.3-1.6
		c-0.3-0.6-0.5-1.4-0.5-2.3c0-1.5,0.4-2.6,1.2-3.4c0.8-0.8,2-1.1,3.4-1.1c1,0,1.8,0.1,2.5,0.3c0.7,0.2,1.3,0.4,1.8,0.7l-0.7,2.1
		c-0.4-0.2-1-0.4-1.6-0.6c-0.6-0.2-1.2-0.2-1.8-0.2c-0.8,0-1.5,0.2-1.9,0.5c-0.4,0.4-0.6,0.9-0.6,1.7c0,0.6,0.2,1.1,0.5,1.5
		C7.1,60.7,7.5,61,8,61.4c0.5,0.3,1.1,0.7,1.6,1c0.6,0.4,1.1,0.8,1.6,1.3c0.5,0.5,0.9,1.1,1.3,1.7c0.3,0.7,0.5,1.5,0.5,2.5
		c0,0.7-0.1,1.3-0.3,1.9c-0.2,0.6-0.5,1.1-1,1.5c-0.4,0.4-1,0.8-1.6,1c-0.6,0.3-1.4,0.4-2.3,0.4c-1,0-1.9-0.1-2.7-0.3
		c-0.8-0.2-1.4-0.5-1.9-0.8L4.1,69.5z"/>
	<path class="st0" d="M14.5,54.7h2.2v-4.5h2.5v4.5h3.8V57h-3.8v10.5c0,1,0.1,1.8,0.4,2.2c0.2,0.5,0.7,0.7,1.2,0.7
		c0.5,0,0.9-0.1,1.2-0.2c0.3-0.1,0.7-0.2,1.1-0.4l0.5,2c-0.5,0.3-1.1,0.5-1.7,0.6c-0.6,0.2-1.3,0.2-2,0.2c-1.2,0-2-0.4-2.5-1.2
		c-0.5-0.8-0.8-2-0.8-3.7V57h-2.2V54.7z"/>
	<path class="st0" d="M26,54.7h1.8l0.5,1.9h0.1c0.3-0.7,0.8-1.2,1.3-1.6c0.5-0.4,1.2-0.6,1.9-0.6c0.5,0,1.2,0.1,1.8,0.3L33,57.3
		c-0.6-0.2-1.2-0.3-1.6-0.3c-0.8,0-1.4,0.2-1.8,0.7c-0.5,0.4-0.8,1-0.9,1.7v13H26V54.7z"/>
	<path class="st0" d="M45.5,71.2c-0.6,0.5-1.3,0.9-2.2,1.2c-0.9,0.3-1.8,0.4-2.8,0.4c-1.1,0-2.1-0.2-2.9-0.7c-0.8-0.4-1.5-1.1-2-1.9
		c-0.5-0.8-0.9-1.8-1.2-2.9c-0.2-1.1-0.4-2.4-0.4-3.8c0-3,0.6-5.3,1.7-6.9c1.1-1.6,2.7-2.4,4.7-2.4c0.7,0,1.3,0.1,2,0.2
		c0.6,0.2,1.2,0.5,1.8,1c0.5,0.5,0.9,1.2,1.3,2.1c0.3,0.9,0.5,2.1,0.5,3.5c0,0.4,0,0.8-0.1,1.3c0,0.5-0.1,0.9-0.1,1.4h-9
		c0,1,0.1,1.9,0.2,2.8c0.2,0.8,0.4,1.5,0.8,2.1c0.4,0.6,0.8,1,1.4,1.3c0.6,0.3,1.2,0.5,2.1,0.5c0.6,0,1.3-0.1,1.9-0.4
		c0.6-0.2,1.1-0.5,1.4-0.8L45.5,71.2z M43.5,61.7c0-1.8-0.2-3.1-0.7-3.9c-0.5-0.8-1.3-1.2-2.2-1.2c-1.1,0-1.9,0.4-2.6,1.2
		c-0.6,0.8-1,2.1-1.1,3.9H43.5z"/>
	<path class="st0" d="M47.7,54.7h2.2v-4.5h2.5v4.5h3.8V57h-3.8v10.5c0,1,0.1,1.8,0.4,2.2c0.2,0.5,0.7,0.7,1.2,0.7
		c0.5,0,0.9-0.1,1.2-0.2c0.3-0.1,0.7-0.2,1.1-0.4l0.5,2c-0.5,0.3-1.1,0.5-1.7,0.6c-0.6,0.2-1.3,0.2-2,0.2c-1.2,0-2-0.4-2.5-1.2
		c-0.5-0.8-0.8-2-0.8-3.7V57h-2.2V54.7z"/>
	<path class="st0" d="M68.7,71.5c-0.6,0.4-1.3,0.8-2,1c-0.8,0.2-1.5,0.3-2.4,0.3c-1.1,0-2.1-0.2-2.9-0.7c-0.8-0.4-1.4-1.1-1.9-1.9
		c-0.5-0.8-0.8-1.8-1.1-2.9c-0.2-1.1-0.3-2.4-0.3-3.8c0-3,0.5-5.3,1.6-6.9c1.1-1.6,2.6-2.4,4.6-2.4c0.9,0,1.7,0.1,2.4,0.2
		c0.7,0.2,1.2,0.4,1.7,0.6l-0.7,2.2c-0.9-0.5-2-0.8-3.1-0.8c-1.3,0-2.2,0.6-2.9,1.7c-0.6,1.1-1,2.9-1,5.3c0,1,0.1,1.9,0.2,2.7
		c0.1,0.8,0.4,1.6,0.7,2.2c0.3,0.6,0.8,1.1,1.3,1.5c0.5,0.4,1.2,0.5,1.9,0.5c0.6,0,1.2-0.1,1.7-0.3c0.5-0.2,1-0.5,1.3-0.7L68.7,71.5
		z"/>
	<path class="st0" d="M80.6,72.4V61.6c0-1.7-0.2-2.9-0.6-3.8c-0.4-0.9-1.2-1.3-2.3-1.3c-0.8,0-1.6,0.3-2.2,0.9
		c-0.7,0.6-1.1,1.3-1.4,2.2v12.7h-2.5V50.2h2.5v6.1h0.1c0.5-0.6,1.1-1.1,1.8-1.5c0.7-0.4,1.6-0.6,2.6-0.6c0.8,0,1.5,0.1,2,0.3
		c0.6,0.2,1.1,0.6,1.4,1.1c0.4,0.5,0.7,1.2,0.8,2.1c0.2,0.9,0.3,1.9,0.3,3.2v11.4H80.6z"/>
	<path class="st0" d="M7.1,14.6c-3.7,1.2-3.2-0.6-1.2-1.2l26-10c0.2-0.1,1.8-0.3,2.3-0.3c0.5,0,2.2,0.3,2.4,0.3L56,9.6V6.4
		c0-0.8-0.1-1.6,1.6-1.6h6.8c1.8,0,1.6,0.7,1.6,1.6v5.4c0,0,12.6,4.3,14.9,4.7c4.5,0.9,4.3,2.5-2.4,1.1c-0.6-0.1-13.5-3.8-13.5-3.8
		c-0.9-0.3-1-0.9-1.1-1.7V7h-5.8v3.5c0,0.5,0,1.2-0.4,1.5c-0.4,0.3-1,0.4-1.5,0.3L36.6,7c-0.3,0-1.8-0.4-2.4-0.4
		c-0.7,0-1.9,0.2-2.3,0.4C31.8,7,8.7,14.3,7.1,14.6"/>
	<polygon class="st0" points="15,45.3 15,34.2 9.3,34.2 9.3,45.3 4.8,45.3 4.8,20 9.3,20 9.3,29.8 15,29.8 15,20 19.5,20 19.5,45.3 
			"/>
	<path class="st0" d="M37.5,25.7c-4.3-2.5-6.4,1.5-6.4,1.5s-2.2-4.1-6.4-1.5c-2.1,1.3-4.1,5.3-2.3,8.8c3.6,7.1,8.8,10.8,8.8,10.8
		s5.1-3.7,8.8-10.8C41.6,31,39.6,27,37.5,25.7 M35.3,34.5c-0.7,1.2-4.2,5.5-4.2,5.5l0,0c0,0-3.5-4.2-4.2-5.4
		c-0.8-1.3-1.1-3.5,0.1-4.3c2.4-1.6,3.9,0.9,4.1,1.3h0.1c0.2-0.4,1.7-2.9,4.1-1.3C36.4,31.1,36.1,33.3,35.3,34.5"/>
</g>
</svg>
