<?xml version="1.0" encoding="utf-8"?>
<!-- Generator: Adobe Illustrator 27.4.0, SVG Export Plug-In . SVG Version: 6.00 Build 0)  -->
<svg version="1.1" id="Layer_1" xmlns="http://www.w3.org/2000/svg" xmlns:xlink="http://www.w3.org/1999/xlink" x="0px" y="0px"
	 viewBox="0 0 50 50" style="enable-background:new 0 0 50 50;" xml:space="preserve">
<style type="text/css">
	.st0{fill:#72C059;}
	.st1{fill-rule:evenodd;clip-rule:evenodd;fill:#72C059;}
	.st2{fill:#72C059;}
	.st3{fill:#B4B4B4;}
	.st4{fill:#E6F0F6;}
	.st5{fill:#FFFFFF;}
</style>
<g>
	<path class="st2" d="M25,17.7c-4.1,0-7.4,3.3-7.4,7.4s3.3,7.4,7.4,7.4s7.4-3.3,7.4-7.4S29.1,17.7,25,17.7z M25,17.7
		c-4.1,0-7.4,3.3-7.4,7.4s3.3,7.4,7.4,7.4s7.4-3.3,7.4-7.4S29.1,17.7,25,17.7z M37.7,7H12.3C9.4,7,7,9.4,7,12.3v25.4
		c0,2.9,2.4,5.3,5.3,5.3h25.4c2.9,0,5.3-2.4,5.3-5.3V12.3C43,9.4,40.6,7,37.7,7z M25,34.6c-5.2,0-9.5-4.3-9.5-9.5
		c0-5.2,4.3-9.5,9.5-9.5s9.5,4.3,9.5,9.5C34.5,30.3,30.2,34.6,25,34.6z M36.6,15.6c-1.2,0-2.1-0.9-2.1-2.1s0.9-2.1,2.1-2.1
		c1.2,0,2.1,0.9,2.1,2.1S37.8,15.6,36.6,15.6z M25,17.7c-4.1,0-7.4,3.3-7.4,7.4s3.3,7.4,7.4,7.4s7.4-3.3,7.4-7.4S29.1,17.7,25,17.7z
		 M25,17.7c-4.1,0-7.4,3.3-7.4,7.4s3.3,7.4,7.4,7.4s7.4-3.3,7.4-7.4S29.1,17.7,25,17.7z M25,17.7c-4.1,0-7.4,3.3-7.4,7.4
		s3.3,7.4,7.4,7.4s7.4-3.3,7.4-7.4S29.1,17.7,25,17.7z"/>
</g>
</svg>
