<?xml version="1.0" encoding="utf-8"?>
<!-- Generator: Adobe Illustrator 27.4.0, SVG Export Plug-In . SVG Version: 6.00 Build 0)  -->
<svg version="1.1" id="Layer_1" xmlns="http://www.w3.org/2000/svg" xmlns:xlink="http://www.w3.org/1999/xlink" x="0px" y="0px"
	 viewBox="0 0 50 50" style="enable-background:new 0 0 50 50;" xml:space="preserve">
<style type="text/css">
	.st0{fill:#72C059;}
	.st1{fill-rule:evenodd;clip-rule:evenodd;fill:#72C059;}
	.st2{fill:#72C059;}
	.st3{fill:#B4B4B4;}
	.st4{fill:#E6F0F6;}
	.st5{fill:#FFFFFF;}
</style>
<path class="st1" d="M9.3,10c-3.4,0.3-6,3.1-6.2,6.5c-0.1,2.8-0.3,6.1-0.3,8.4c0,2.3,0.1,5.6,0.3,8.5c0.2,3.4,2.7,6.2,6.1,6.5
	c3.8,0.3,9.2,0.7,15.8,0.7c6.6,0,12.1-0.3,15.8-0.7c3.4-0.3,6-3.1,6.1-6.5c0.1-3,0.3-6.5,0.3-8.4c0-1.9-0.1-5.3-0.3-8.3
	c-0.2-3.5-2.8-6.3-6.2-6.5C37,9.7,31.7,9.4,25,9.4C18.3,9.4,13,9.7,9.3,10L9.3,10z M20.6,18.3L32,24.9l-11.5,6.6V18.3z"/>
</svg>
