<?xml version="1.0" encoding="utf-8"?>
<!-- Generator: Adobe Illustrator 27.4.0, SVG Export Plug-In . SVG Version: 6.00 Build 0)  -->
<svg version="1.1" id="Layer_1" xmlns="http://www.w3.org/2000/svg" xmlns:xlink="http://www.w3.org/1999/xlink" x="0px" y="0px"
	 viewBox="0 0 50 50" style="enable-background:new 0 0 50 50;" xml:space="preserve">
<style type="text/css">
	.st0{fill:#72C059;}
	.st1{fill-rule:evenodd;clip-rule:evenodd;fill:#72C059;}
	.st2{fill:#72C059;}
	.st3{fill:#B4B4B4;}
	.st4{fill:#E6F0F6;}
	.st5{fill:#FFFFFF;}
</style>
<g>
	<path class="st2" d="M16,35.5c-4.1,3.1-8.6,4.3-13.6,3.8c0.1,0.1,0.1,0.1,0.1,0.1c2.1,1.3,4.3,2.3,6.6,3c3.2,0.9,6.5,1.2,9.8,1
		c2.8-0.2,5.5-0.8,8.1-1.9c4.8-2,8.7-5.2,11.6-9.6c3.2-4.8,4.7-10.1,4.6-15.8c0-0.2,0.1-0.4,0.3-0.6c1.1-1.1,2.2-2.1,3.3-3.1
		c0.4-0.4,0.7-0.9,1-1.3c-1.7,0.6-3.3,1.1-5,1.2c1.8-1.3,3.1-2.9,3.8-5c-0.2,0.1-0.3,0.1-0.4,0.2c-1.6,0.9-3.3,1.5-5.1,1.9
		c-0.3,0.1-0.5,0-0.7-0.2c-2.9-2.7-6.3-3.4-10-2c-3.3,1.2-5.7,4.6-5.8,8.1c0,0.9,0.1,1.7,0.1,2.7c-7.7-0.5-14.1-3.8-19.2-9.8
		c-1.2,2.2-1.6,4.4-1,6.7c0.5,2.3,1.8,4.2,3.9,5.7c-1.6,0-2.9-0.5-4.1-1.1c-0.2,1.3,0.4,3.4,1.2,4.8c1.4,2.3,3.4,3.8,6.1,4.5
		C10,29.2,8.7,29.2,7.3,29C8.8,33,11.7,35.1,16,35.5z"/>
	<path class="st2" d="M16,35.5C11.7,35.1,8.8,33,7.3,29c1.4,0.2,2.7,0.2,4.1-0.2c-2.7-0.7-4.7-2.1-6.1-4.5c-0.9-1.4-1.4-3.5-1.2-4.8
		c1.3,0.6,2.6,1.1,4.1,1.1c-2-1.5-3.3-3.3-3.9-5.7c-0.5-2.4-0.2-4.6,1-6.7c5.1,5.9,11.4,9.2,19.2,9.8c0-0.9-0.1-1.8-0.1-2.7
		c0.1-3.5,2.5-6.9,5.8-8.1c3.7-1.4,7.1-0.7,10,2c0.2,0.2,0.4,0.3,0.7,0.2c1.8-0.4,3.5-1,5.1-1.9c0.1-0.1,0.2-0.1,0.4-0.2
		c-0.7,2.2-2,3.8-3.8,5c1.7-0.2,3.4-0.7,5-1.2c-0.3,0.5-0.6,1-1,1.3c-1.1,1.1-2.2,2.1-3.3,3.1c-0.1,0.1-0.3,0.4-0.3,0.6
		c0.1,5.8-1.4,11-4.6,15.8c-2.9,4.4-6.7,7.6-11.6,9.6c-2.6,1.1-5.3,1.7-8.1,1.9c-3.3,0.3-6.6,0-9.8-1c-2.3-0.7-4.6-1.7-6.6-3
		c0,0-0.1-0.1-0.1-0.1C7.4,39.8,11.9,38.6,16,35.5z"/>
</g>
</svg>
